<?xml version="1.0" encoding="UTF-8" standalone="no"?>
<svg
   xmlns:dc="http://purl.org/dc/elements/1.1/"
   xmlns:cc="http://creativecommons.org/ns#"
   xmlns:rdf="http://www.w3.org/1999/02/22-rdf-syntax-ns#"
   xmlns:svg="http://www.w3.org/2000/svg"
   xmlns="http://www.w3.org/2000/svg"
   viewBox="0 0 754.66669 474.66666"
   height="474.66666"
   width="754.66669"
   xml:space="preserve"
   id="svg2"
   version="1.1"><metadata
     id="metadata8"><rdf:RDF><cc:Work
         rdf:about=""><dc:format>image/svg+xml</dc:format><dc:type
           rdf:resource="http://purl.org/dc/dcmitype/StillImage" /><dc:title></dc:title></cc:Work></rdf:RDF></metadata><defs
     id="defs6" /><g
     transform="matrix(1.3333333,0,0,1.3333333,0,1.52e-5)"
     id="g10"><g
       id="g12"><path
         id="path14"
         style="fill:#ffffff;fill-opacity:1;fill-rule:nonzero;stroke:none"
         d="M 0,0 H 566 V 356 H 0 Z" /><path
         id="path16"
         style="fill:#000000;fill-opacity:1;fill-rule:nonzero;stroke:none"
         d="m 50.27,249.164 h 6.171 v 0.844 h -2.593 v 6.453 h -0.985 v -6.453 H 50.27 Z m 8.109,3.813 v 2.671 h 1.578 c 0.531,0 0.922,-0.109 1.172,-0.328 0.262,-0.218 0.391,-0.554 0.391,-1.015 0,-0.446 -0.129,-0.782 -0.391,-1 -0.25,-0.219 -0.641,-0.328 -1.172,-0.328 z m 0,-3 v 2.203 h 1.453 c 0.492,0 0.848,-0.086 1.078,-0.266 0.242,-0.187 0.36,-0.465 0.36,-0.828 0,-0.375 -0.118,-0.648 -0.36,-0.828 -0.23,-0.188 -0.586,-0.281 -1.078,-0.281 z m -0.984,-0.813 h 2.515 c 0.75,0 1.328,0.156 1.735,0.469 0.406,0.312 0.609,0.762 0.609,1.344 0,0.449 -0.102,0.804 -0.313,1.062 -0.207,0.262 -0.511,0.422 -0.906,0.484 0.481,0.106 0.856,0.325 1.125,0.657 0.27,0.336 0.406,0.746 0.406,1.234 0,0.656 -0.222,1.16 -0.671,1.516 -0.438,0.355 -1.067,0.531 -1.891,0.531 h -2.609 z m 6.859,0 h 4.609 v 0.844 h -3.625 v 2.156 h 3.469 v 0.828 h -3.469 v 2.641 h 3.703 v 0.828 h -4.687 z m 5.305,0 h 6.171 v 0.844 h -2.593 v 6.453 h -0.985 v -6.453 h -2.593 v -0.844" /><g
         transform="scale(1,-1)"
         id="g18"><path
           id="path20"
           style="fill:none;stroke:#000000;stroke-width:1;stroke-linecap:butt;stroke-linejoin:miter;stroke-miterlimit:1.45000005;stroke-dasharray:none;stroke-opacity:1"
           d="m 38,-240.5 h 50 v -25 H 38 Z" /></g><path
         id="path22"
         style="fill:#000000;fill-opacity:1;fill-rule:nonzero;stroke:none"
         d="m 52.02,93.344 h 0.984 v 7.297 H 52.02 Z m 2.949,0 h 4.187 v 0.844 h -3.203 v 2.14 h 2.891 v 0.828 h -2.891 v 3.485 h -0.984 z m 5.75,0 h 1.328 l 3.234,6.109 v -6.109 h 0.953 v 7.297 h -1.328 l -3.234,-6.094 v 6.094 h -0.953 z m 12.449,6.25 v -1.953 h -1.609 v -0.813 h 2.578 v 3.141 c -0.375,0.261 -0.789,0.465 -1.25,0.609 -0.457,0.137 -0.946,0.203 -1.469,0.203 -1.145,0 -2.039,-0.332 -2.688,-1 -0.632,-0.664 -0.953,-1.593 -0.953,-2.781 0,-1.188 0.321,-2.113 0.953,-2.781 0.649,-0.664 1.543,-1 2.688,-1 0.469,0 0.918,0.058 1.344,0.172 0.437,0.117 0.836,0.289 1.187,0.515 v 1.063 c -0.363,-0.313 -0.75,-0.547 -1.156,-0.703 -0.406,-0.157 -0.836,-0.235 -1.297,-0.235 -0.894,0 -1.566,0.25 -2.016,0.75 -0.437,0.492 -0.656,1.231 -0.656,2.219 0,0.992 0.219,1.734 0.656,2.234 0.45,0.493 1.122,0.735 2.016,0.735 0.356,0 0.668,-0.024 0.938,-0.078 0.273,-0.063 0.515,-0.161 0.734,-0.297" /><path
         id="path24"
         style="fill:#000000;fill-opacity:1;fill-rule:nonzero;stroke:none"
         d="m 52.477,105.234 v 0.954 c -0.375,-0.176 -0.731,-0.305 -1.063,-0.391 -0.336,-0.094 -0.656,-0.141 -0.969,-0.141 -0.531,0 -0.945,0.106 -1.234,0.313 -0.293,0.211 -0.438,0.508 -0.438,0.89 0,0.325 0.094,0.571 0.282,0.735 0.195,0.168 0.566,0.297 1.109,0.39 l 0.594,0.125 c 0.726,0.149 1.269,0.399 1.625,0.75 0.351,0.344 0.531,0.813 0.531,1.407 0,0.711 -0.242,1.246 -0.719,1.609 -0.468,0.367 -1.164,0.547 -2.078,0.547 -0.344,0 -0.715,-0.039 -1.109,-0.125 -0.387,-0.07 -0.789,-0.188 -1.203,-0.344 v -1.015 c 0.406,0.23 0.797,0.402 1.172,0.515 0.382,0.117 0.765,0.172 1.14,0.172 0.563,0 0.992,-0.109 1.297,-0.328 0.313,-0.227 0.469,-0.547 0.469,-0.953 0,-0.352 -0.11,-0.629 -0.328,-0.828 -0.219,-0.207 -0.586,-0.364 -1.094,-0.469 l -0.594,-0.109 c -0.742,-0.145 -1.277,-0.376 -1.609,-0.688 -0.324,-0.312 -0.485,-0.75 -0.485,-1.312 0,-0.645 0.223,-1.153 0.672,-1.516 0.457,-0.375 1.086,-0.563 1.891,-0.563 0.344,0 0.691,0.032 1.047,0.094 0.351,0.063 0.719,0.156 1.094,0.281 z m 0.957,-0.25 h 6.171 v 0.844 h -2.593 v 6.453 h -0.985 v -6.453 h -2.593 z m 9.558,0.985 -1.34,3.625 h 2.688 z m -0.562,-0.985 h 1.125 l 2.785,7.297 h -1.035 l -0.668,-1.875 h -3.285 l -0.653,1.875 h -1.047 z m 3.953,0 h 6.172 v 0.844 h -2.594 v 6.453 h -0.984 v -6.453 h -2.594 z m 7.375,6.469 h 1.625 v -5.562 l -1.77,0.343 v -0.89 l 1.75,-0.36 h 0.985 v 6.469 h 1.613 v 0.828 h -4.203 v -0.828" /><g
         transform="scale(1,-1)"
         id="g26"><path
           id="path28"
           style="fill:none;stroke:#000000;stroke-width:1;stroke-linecap:butt;stroke-linejoin:miter;stroke-miterlimit:1.45000005;stroke-dasharray:none;stroke-opacity:1"
           d="m 88,-103 c 0,-8.285 -11.191,-15 -25,-15 -13.809,0 -25,6.715 -25,15 0,8.285 11.191,15 25,15 13.809,0 25,-6.715 25,-15 z" /></g><path
         id="path30"
         style="fill:#000000;fill-opacity:1;fill-rule:nonzero;stroke:none"
         d="m 202.004,255.414 v -1.953 h -1.609 v -0.813 h 2.578 v 3.141 c -0.375,0.262 -0.793,0.465 -1.25,0.609 -0.461,0.137 -0.95,0.204 -1.469,0.204 -1.149,0 -2.043,-0.332 -2.688,-1 -0.636,-0.664 -0.953,-1.594 -0.953,-2.782 0,-1.187 0.317,-2.113 0.953,-2.781 0.645,-0.668 1.539,-1 2.688,-1 0.469,0 0.914,0.059 1.344,0.172 0.437,0.113 0.832,0.285 1.187,0.516 v 1.062 c -0.367,-0.312 -0.75,-0.547 -1.156,-0.703 -0.406,-0.156 -0.84,-0.234 -1.297,-0.234 -0.898,0 -1.57,0.25 -2.016,0.75 -0.437,0.492 -0.656,1.23 -0.656,2.218 0,0.992 0.219,1.735 0.656,2.235 0.446,0.492 1.118,0.734 2.016,0.734 0.352,0 0.664,-0.023 0.938,-0.078 0.269,-0.063 0.515,-0.16 0.734,-0.297 z m 5.215,-5.266 -1.344,3.625 h 2.687 z m -0.563,-0.984 h 1.125 l 2.781,7.297 h -1.031 l -0.672,-1.875 h -3.281 l -0.656,1.875 h -1.047 z m 3.953,0 h 6.172 v 0.844 h -2.593 v 6.453 h -0.985 v -6.453 h -2.594 z m 9.559,0.984 -1.344,3.625 h 2.688 z m -0.563,-0.984 h 1.125 l 2.782,7.297 h -1.032 l -0.671,-1.875 h -3.282 l -0.656,1.875 h -1.047 z m 8.047,3.359 c 0.469,0.106 0.832,0.321 1.094,0.641 0.27,0.313 0.406,0.703 0.406,1.172 0,0.719 -0.25,1.277 -0.75,1.672 -0.492,0.398 -1.195,0.594 -2.109,0.594 -0.305,0 -0.617,-0.032 -0.938,-0.094 -0.324,-0.063 -0.656,-0.149 -1,-0.266 v -0.953 c 0.27,0.156 0.567,0.277 0.891,0.359 0.332,0.086 0.676,0.125 1.031,0.125 0.614,0 1.082,-0.117 1.407,-0.359 0.32,-0.25 0.484,-0.609 0.484,-1.078 0,-0.426 -0.152,-0.762 -0.453,-1 -0.305,-0.238 -0.719,-0.359 -1.25,-0.359 h -0.86 v -0.813 h 0.891 c 0.488,0 0.859,-0.098 1.109,-0.297 0.258,-0.195 0.391,-0.476 0.391,-0.844 0,-0.363 -0.137,-0.644 -0.406,-0.843 -0.262,-0.207 -0.637,-0.313 -1.125,-0.313 -0.274,0 -0.563,0.031 -0.875,0.094 -0.313,0.055 -0.652,0.141 -1.016,0.266 v -0.875 c 0.375,-0.106 0.723,-0.18 1.047,-0.235 0.332,-0.051 0.641,-0.078 0.922,-0.078 0.75,0 1.344,0.172 1.781,0.516 0.438,0.336 0.656,0.793 0.656,1.375 0,0.406 -0.117,0.75 -0.343,1.031 -0.231,0.273 -0.559,0.461 -0.985,0.562" /><g
         transform="scale(1,-1)"
         id="g32"><path
           id="path34"
           style="fill:none;stroke:#000000;stroke-width:1;stroke-linecap:butt;stroke-linejoin:miter;stroke-miterlimit:1.45000005;stroke-dasharray:none;stroke-opacity:1"
           d="m 188,-240.5 h 50 v -25 h -50 z" /></g><path
         id="path36"
         style="fill:#000000;fill-opacity:1;fill-rule:nonzero;stroke:none"
         d="m 206.543,93.344 h 0.984 v 7.297 h -0.984 z m 2.949,0 h 0.985 v 6.468 h 3.546 v 0.829 h -4.531 z m 8.367,0.859 -2.484,3.891 h 2.484 z m -0.265,-0.859 h 1.25 v 4.75 h 1.031 v 0.828 h -1.031 v 1.719 h -0.985 v -1.719 h -3.297 v -0.953 l 3.032,-4.625" /><path
         id="path38"
         style="fill:#000000;fill-opacity:1;fill-rule:nonzero;stroke:none"
         d="m 202.477,105.234 v 0.954 c -0.375,-0.176 -0.731,-0.305 -1.063,-0.391 -0.336,-0.094 -0.656,-0.141 -0.969,-0.141 -0.531,0 -0.941,0.106 -1.234,0.313 -0.293,0.211 -0.438,0.508 -0.438,0.89 0,0.325 0.094,0.571 0.282,0.735 0.199,0.168 0.566,0.297 1.109,0.39 l 0.594,0.125 c 0.726,0.149 1.269,0.399 1.625,0.75 0.351,0.344 0.531,0.813 0.531,1.407 0,0.711 -0.238,1.246 -0.719,1.609 -0.468,0.367 -1.164,0.547 -2.078,0.547 -0.344,0 -0.715,-0.039 -1.109,-0.125 -0.387,-0.07 -0.789,-0.188 -1.203,-0.344 v -1.015 c 0.406,0.23 0.797,0.402 1.172,0.515 0.382,0.117 0.765,0.172 1.14,0.172 0.563,0 0.992,-0.109 1.297,-0.328 0.313,-0.227 0.469,-0.547 0.469,-0.953 0,-0.352 -0.11,-0.629 -0.328,-0.828 -0.219,-0.207 -0.586,-0.364 -1.094,-0.469 l -0.594,-0.109 c -0.738,-0.145 -1.277,-0.376 -1.609,-0.688 -0.324,-0.312 -0.485,-0.75 -0.485,-1.312 0,-0.645 0.223,-1.153 0.672,-1.516 0.457,-0.375 1.086,-0.563 1.891,-0.563 0.344,0 0.691,0.032 1.047,0.094 0.351,0.063 0.719,0.156 1.094,0.281 z m 0.957,-0.25 h 6.171 v 0.844 h -2.593 v 6.453 h -0.985 v -6.453 h -2.593 z m 9.558,0.985 -1.344,3.625 h 2.692 z m -0.558,-0.985 h 1.125 l 2.781,7.297 h -1.031 l -0.672,-1.875 h -3.282 l -0.66,1.875 h -1.047 z m 3.949,0 h 6.172 v 0.844 h -2.594 v 6.453 h -0.984 v -6.453 h -2.594 z m 9.433,3.266 c -0.433,0 -0.785,0.152 -1.046,0.453 -0.258,0.305 -0.387,0.715 -0.387,1.235 0,0.531 0.129,0.949 0.387,1.25 0.261,0.304 0.613,0.453 1.046,0.453 0.45,0 0.797,-0.149 1.047,-0.453 0.262,-0.301 0.395,-0.719 0.395,-1.25 0,-0.52 -0.133,-0.93 -0.395,-1.235 -0.25,-0.301 -0.597,-0.453 -1.047,-0.453 z m 1.969,-3.094 v 0.891 c -0.25,-0.113 -0.504,-0.203 -0.765,-0.266 -0.25,-0.062 -0.493,-0.093 -0.735,-0.093 -0.652,0 -1.152,0.218 -1.5,0.656 -0.344,0.437 -0.535,1.105 -0.574,2 0.184,-0.282 0.426,-0.492 0.719,-0.641 0.289,-0.156 0.605,-0.234 0.953,-0.234 0.726,0 1.305,0.226 1.73,0.672 0.43,0.437 0.645,1.039 0.645,1.797 0,0.75 -0.227,1.355 -0.672,1.812 -0.441,0.449 -1.027,0.672 -1.77,0.672 -0.839,0 -1.488,-0.32 -1.933,-0.969 -0.442,-0.644 -0.656,-1.582 -0.656,-2.812 0,-1.145 0.269,-2.063 0.808,-2.75 0.555,-0.688 1.289,-1.032 2.203,-1.032 0.25,0 0.5,0.028 0.75,0.079 0.25,0.042 0.52,0.117 0.797,0.218" /><g
         transform="scale(1,-1)"
         id="g40"><path
           id="path42"
           style="fill:none;stroke:#000000;stroke-width:1;stroke-linecap:butt;stroke-linejoin:miter;stroke-miterlimit:1.45000005;stroke-dasharray:none;stroke-opacity:1"
           d="m 238,-103 c 0,-8.285 -11.191,-15 -25,-15 -13.809,0 -25,6.715 -25,15 0,8.285 11.191,15 25,15 13.809,0 25,-6.715 25,-15 z" /></g><path
         id="path44"
         style="fill:#000000;fill-opacity:1;fill-rule:nonzero;stroke:none"
         d="m 344.234,93.344 h 0.985 v 7.297 h -0.985 z m 2.95,0 h 0.984 v 6.468 h 3.547 v 0.829 h -4.531 z m 7.886,3.265 c -0.437,0 -0.789,0.153 -1.047,0.453 -0.261,0.305 -0.39,0.715 -0.39,1.235 0,0.531 0.129,0.949 0.39,1.25 0.258,0.305 0.61,0.453 1.047,0.453 0.446,0 0.797,-0.148 1.047,-0.453 0.258,-0.301 0.391,-0.719 0.391,-1.25 0,-0.52 -0.133,-0.93 -0.391,-1.235 -0.25,-0.3 -0.601,-0.453 -1.047,-0.453 z m 1.969,-3.093 v 0.89 c -0.25,-0.113 -0.508,-0.203 -0.766,-0.265 -0.25,-0.063 -0.496,-0.094 -0.734,-0.094 -0.656,0 -1.156,0.219 -1.5,0.656 -0.344,0.438 -0.539,1.106 -0.578,2 0.187,-0.281 0.426,-0.492 0.719,-0.641 0.289,-0.156 0.609,-0.234 0.953,-0.234 0.726,0 1.305,0.227 1.734,0.672 0.426,0.438 0.641,1.035 0.641,1.797 0,0.75 -0.227,1.355 -0.672,1.812 -0.438,0.45 -1.027,0.672 -1.766,0.672 -0.843,0 -1.492,-0.32 -1.937,-0.969 -0.438,-0.644 -0.656,-1.582 -0.656,-2.812 0,-1.145 0.269,-2.062 0.812,-2.75 0.551,-0.688 1.285,-1.031 2.203,-1.031 0.25,0 0.5,0.027 0.75,0.078 0.25,0.043 0.516,0.113 0.797,0.219 z m 3.641,-0.172 h 0.828 l -2.547,8.218 h -0.828 z m 1.808,0 h 0.985 v 7.297 h -0.985 z m 2.95,0 h 0.984 v 6.468 h 3.547 v 0.829 h -4.531 z m 6.507,6.468 h 3.438 v 0.829 h -4.625 v -0.829 c 0.375,-0.382 0.887,-0.906 1.531,-1.562 0.645,-0.656 1.055,-1.078 1.219,-1.266 0.312,-0.351 0.531,-0.648 0.656,-0.89 0.125,-0.25 0.188,-0.492 0.188,-0.735 0,-0.382 -0.133,-0.699 -0.407,-0.937 -0.269,-0.25 -0.625,-0.375 -1.062,-0.375 -0.313,0 -0.641,0.058 -0.985,0.172 -0.332,0.105 -0.699,0.265 -1.093,0.484 v -1 c 0.394,-0.156 0.765,-0.273 1.109,-0.359 0.344,-0.082 0.66,-0.125 0.953,-0.125 0.75,0 1.352,0.187 1.797,0.562 0.457,0.375 0.688,0.879 0.688,1.516 0,0.305 -0.055,0.59 -0.172,0.859 -0.114,0.262 -0.317,0.574 -0.61,0.938 -0.082,0.094 -0.343,0.371 -0.781,0.828 -0.437,0.449 -1.051,1.078 -1.844,1.89 z m 5.676,0 h 1.625 V 94.25 l -1.766,0.344 v -0.891 l 1.75,-0.359 h 0.985 v 6.468 h 1.609 v 0.829 h -4.203 v -0.829" /><path
         id="path46"
         style="fill:#000000;fill-opacity:1;fill-rule:nonzero;stroke:none"
         d="m 352.477,105.234 v 0.954 c -0.375,-0.176 -0.731,-0.305 -1.063,-0.391 -0.336,-0.094 -0.656,-0.141 -0.969,-0.141 -0.531,0 -0.941,0.106 -1.234,0.313 -0.293,0.211 -0.438,0.508 -0.438,0.89 0,0.325 0.094,0.571 0.282,0.735 0.199,0.168 0.566,0.297 1.109,0.39 l 0.594,0.125 c 0.726,0.149 1.269,0.399 1.625,0.75 0.351,0.344 0.531,0.813 0.531,1.407 0,0.711 -0.238,1.246 -0.719,1.609 -0.468,0.367 -1.164,0.547 -2.078,0.547 -0.344,0 -0.715,-0.039 -1.109,-0.125 -0.387,-0.07 -0.789,-0.188 -1.203,-0.344 v -1.015 c 0.406,0.23 0.797,0.402 1.172,0.515 0.382,0.117 0.765,0.172 1.14,0.172 0.563,0 0.992,-0.109 1.297,-0.328 0.313,-0.227 0.469,-0.547 0.469,-0.953 0,-0.352 -0.11,-0.629 -0.328,-0.828 -0.219,-0.207 -0.586,-0.364 -1.094,-0.469 l -0.594,-0.109 c -0.738,-0.145 -1.277,-0.376 -1.609,-0.688 -0.324,-0.312 -0.485,-0.75 -0.485,-1.312 0,-0.645 0.223,-1.153 0.672,-1.516 0.457,-0.375 1.086,-0.563 1.891,-0.563 0.344,0 0.691,0.032 1.047,0.094 0.351,0.063 0.719,0.156 1.094,0.281 z m 0.957,-0.25 h 6.171 v 0.844 h -2.593 v 6.453 h -0.985 v -6.453 h -2.593 z m 9.558,0.985 -1.344,3.625 h 2.692 z m -0.558,-0.985 h 1.125 l 2.781,7.297 h -1.031 l -0.672,-1.875 h -3.282 l -0.66,1.875 h -1.047 z m 3.949,0 h 6.172 v 0.844 h -2.594 v 6.453 h -0.984 v -6.453 h -2.594 z m 10.203,3.36 c 0.469,0.105 0.832,0.316 1.094,0.64 0.269,0.313 0.406,0.704 0.406,1.172 0,0.719 -0.25,1.278 -0.75,1.672 -0.492,0.399 -1.195,0.594 -2.109,0.594 -0.305,0 -0.618,-0.031 -0.942,-0.094 -0.32,-0.062 -0.652,-0.148 -1,-0.266 v -0.953 c 0.274,0.157 0.57,0.278 0.895,0.36 0.332,0.086 0.675,0.125 1.031,0.125 0.613,0 1.082,-0.117 1.402,-0.36 0.325,-0.25 0.489,-0.609 0.489,-1.078 0,-0.426 -0.153,-0.758 -0.457,-1 -0.301,-0.238 -0.715,-0.359 -1.25,-0.359 h -0.86 v -0.813 h 0.895 c 0.488,0 0.855,-0.097 1.105,-0.296 0.262,-0.196 0.395,-0.477 0.395,-0.844 0,-0.364 -0.137,-0.645 -0.41,-0.844 -0.258,-0.207 -0.633,-0.312 -1.125,-0.312 -0.27,0 -0.559,0.031 -0.875,0.093 -0.309,0.055 -0.649,0.141 -1.012,0.266 v -0.875 c 0.375,-0.102 0.722,-0.18 1.047,-0.234 0.332,-0.051 0.636,-0.079 0.922,-0.079 0.75,0 1.339,0.172 1.781,0.516 0.433,0.336 0.652,0.793 0.652,1.375 0,0.406 -0.113,0.75 -0.344,1.031 -0.226,0.274 -0.554,0.461 -0.98,0.563" /><g
         transform="scale(1,-1)"
         id="g48"><path
           id="path50"
           style="fill:none;stroke:#000000;stroke-width:1;stroke-linecap:butt;stroke-linejoin:miter;stroke-miterlimit:1.45000005;stroke-dasharray:none;stroke-opacity:1"
           d="m 388,-103 c 0,-8.285 -11.191,-15 -25,-15 -13.809,0 -25,6.715 -25,15 0,8.285 11.191,15 25,15 13.809,0 25,-6.715 25,-15 z" /></g><path
         id="path52"
         style="fill:#000000;fill-opacity:1;fill-rule:nonzero;stroke:none"
         d="m 428.363,93.344 h 0.985 v 7.297 h -0.985 z m 2.949,0 h 0.985 v 6.468 h 3.547 v 0.829 h -4.532 z m 5.821,6.468 h 1.625 V 94.25 l -1.766,0.344 v -0.891 l 1.75,-0.359 h 0.985 v 6.468 h 1.609 v 0.829 h -4.203 z M 445.434,94 c -0.5,0 -0.883,0.25 -1.141,0.75 -0.25,0.5 -0.375,1.25 -0.375,2.25 0,1 0.125,1.75 0.375,2.25 0.258,0.5 0.641,0.75 1.141,0.75 0.519,0 0.906,-0.25 1.156,-0.75 0.258,-0.5 0.39,-1.25 0.39,-2.25 0,-1 -0.132,-1.75 -0.39,-2.25 -0.25,-0.5 -0.637,-0.75 -1.156,-0.75 z m 0,-0.781 c 0.82,0 1.445,0.324 1.875,0.969 0.437,0.648 0.656,1.585 0.656,2.812 0,1.23 -0.219,2.168 -0.656,2.812 -0.43,0.649 -1.055,0.969 -1.875,0.969 -0.813,0 -1.438,-0.32 -1.875,-0.969 -0.43,-0.644 -0.641,-1.582 -0.641,-2.812 0,-1.227 0.211,-2.164 0.641,-2.812 0.437,-0.645 1.062,-0.969 1.875,-0.969" /><path
         id="path54"
         style="fill:#000000;fill-opacity:1;fill-rule:nonzero;stroke:none"
         d="m 424.977,105.234 v 0.954 c -0.375,-0.176 -0.731,-0.305 -1.063,-0.391 -0.336,-0.094 -0.656,-0.141 -0.969,-0.141 -0.531,0 -0.941,0.106 -1.234,0.313 -0.293,0.211 -0.438,0.508 -0.438,0.89 0,0.325 0.094,0.571 0.282,0.735 0.199,0.168 0.566,0.297 1.109,0.39 l 0.594,0.125 c 0.726,0.149 1.269,0.399 1.625,0.75 0.351,0.344 0.531,0.813 0.531,1.407 0,0.711 -0.238,1.246 -0.719,1.609 -0.468,0.367 -1.164,0.547 -2.078,0.547 -0.344,0 -0.715,-0.039 -1.109,-0.125 -0.387,-0.07 -0.789,-0.188 -1.203,-0.344 v -1.015 c 0.406,0.23 0.797,0.402 1.172,0.515 0.382,0.117 0.765,0.172 1.14,0.172 0.563,0 0.992,-0.109 1.297,-0.328 0.313,-0.227 0.469,-0.547 0.469,-0.953 0,-0.352 -0.11,-0.629 -0.328,-0.828 -0.219,-0.207 -0.586,-0.364 -1.094,-0.469 l -0.594,-0.109 c -0.738,-0.145 -1.277,-0.376 -1.609,-0.688 -0.324,-0.312 -0.485,-0.75 -0.485,-1.312 0,-0.645 0.223,-1.153 0.672,-1.516 0.457,-0.375 1.086,-0.563 1.891,-0.563 0.344,0 0.691,0.032 1.047,0.094 0.351,0.063 0.719,0.156 1.094,0.281 z m 0.957,-0.25 h 6.171 v 0.844 h -2.593 v 6.453 h -0.985 v -6.453 h -2.593 z m 9.558,0.985 -1.344,3.625 h 2.692 z m -0.558,-0.985 h 1.125 l 2.781,7.297 h -1.031 l -0.672,-1.875 h -3.282 l -0.66,1.875 h -1.047 z m 3.949,0 h 6.172 v 0.844 h -2.594 v 6.453 h -0.984 v -6.453 h -2.594 z m 10.203,3.36 c 0.469,0.105 0.832,0.316 1.094,0.64 0.269,0.313 0.406,0.704 0.406,1.172 0,0.719 -0.25,1.278 -0.75,1.672 -0.492,0.399 -1.195,0.594 -2.109,0.594 -0.305,0 -0.618,-0.031 -0.942,-0.094 -0.32,-0.062 -0.652,-0.148 -1,-0.266 v -0.953 c 0.274,0.157 0.57,0.278 0.895,0.36 0.332,0.086 0.675,0.125 1.031,0.125 0.613,0 1.082,-0.117 1.402,-0.36 0.325,-0.25 0.489,-0.609 0.489,-1.078 0,-0.426 -0.153,-0.758 -0.457,-1 -0.301,-0.238 -0.715,-0.359 -1.25,-0.359 h -0.86 v -0.813 h 0.895 c 0.488,0 0.855,-0.097 1.105,-0.296 0.262,-0.196 0.395,-0.477 0.395,-0.844 0,-0.364 -0.137,-0.645 -0.41,-0.844 -0.258,-0.207 -0.633,-0.312 -1.125,-0.312 -0.27,0 -0.559,0.031 -0.875,0.093 -0.309,0.055 -0.649,0.141 -1.012,0.266 v -0.875 c 0.375,-0.102 0.722,-0.18 1.047,-0.234 0.332,-0.051 0.636,-0.079 0.922,-0.079 0.75,0 1.339,0.172 1.781,0.516 0.433,0.336 0.652,0.793 0.652,1.375 0,0.406 -0.113,0.75 -0.344,1.031 -0.226,0.274 -0.554,0.461 -0.98,0.563 z m 7,-2.156 -1.75,0.953 1.75,0.953 -0.281,0.468 -1.641,-0.984 v 1.844 h -0.562 v -1.844 l -1.641,0.984 -0.281,-0.468 1.75,-0.953 -1.75,-0.953 0.281,-0.485 1.641,1 v -1.844 h 0.562 v 1.844 l 1.641,-1 0.281,0.485" /><g
         transform="scale(1,-1)"
         id="g56"><path
           id="path58"
           style="fill:none;stroke:#000000;stroke-width:1;stroke-linecap:butt;stroke-linejoin:miter;stroke-miterlimit:1.45000005;stroke-dasharray:none;stroke-opacity:1"
           d="m 463,-103 c 0,-8.285 -11.191,-15 -25,-15 -13.809,0 -25,6.715 -25,15 0,8.285 11.191,15 25,15 13.809,0 25,-6.715 25,-15 z" /></g><path
         id="path60"
         style="fill:#000000;fill-opacity:1;fill-rule:nonzero;stroke:none"
         d="m 426.402,174.414 v 0.953 c -0.375,-0.176 -0.726,-0.305 -1.062,-0.39 -0.332,-0.094 -0.656,-0.141 -0.969,-0.141 -0.531,0 -0.941,0.105 -1.234,0.312 -0.289,0.211 -0.438,0.508 -0.438,0.891 0,0.324 0.094,0.57 0.281,0.734 0.2,0.168 0.571,0.297 1.11,0.391 l 0.594,0.125 c 0.73,0.149 1.273,0.399 1.625,0.75 0.355,0.344 0.531,0.813 0.531,1.406 0,0.711 -0.238,1.246 -0.719,1.61 -0.469,0.367 -1.16,0.547 -2.078,0.547 -0.344,0 -0.711,-0.04 -1.109,-0.125 -0.383,-0.071 -0.786,-0.188 -1.204,-0.344 v -1.016 c 0.407,0.231 0.797,0.403 1.172,0.516 0.387,0.113 0.766,0.172 1.141,0.172 0.562,0 0.996,-0.11 1.297,-0.328 0.312,-0.231 0.469,-0.547 0.469,-0.954 0,-0.351 -0.11,-0.628 -0.329,-0.828 -0.218,-0.207 -0.582,-0.363 -1.093,-0.468 l -0.594,-0.11 c -0.738,-0.144 -1.273,-0.375 -1.609,-0.687 -0.321,-0.313 -0.485,-0.75 -0.485,-1.313 0,-0.644 0.227,-1.148 0.672,-1.515 0.461,-0.375 1.09,-0.563 1.891,-0.563 0.343,0 0.695,0.031 1.047,0.094 0.355,0.062 0.718,0.156 1.093,0.281 z m 4.926,0.422 c -0.719,0 -1.285,0.273 -1.703,0.812 -0.414,0.532 -0.625,1.258 -0.625,2.172 0,0.918 0.211,1.649 0.625,2.188 0.418,0.531 0.984,0.797 1.703,0.797 0.719,0 1.289,-0.266 1.703,-0.797 0.418,-0.539 0.625,-1.27 0.625,-2.188 0,-0.914 -0.207,-1.64 -0.625,-2.172 -0.414,-0.539 -0.984,-0.812 -1.703,-0.812 z m 0,-0.797 c 1.024,0 1.84,0.344 2.453,1.031 0.617,0.688 0.922,1.606 0.922,2.75 0,1.149 -0.305,2.063 -0.922,2.75 -0.613,0.688 -1.429,1.032 -2.453,1.032 -1.019,0 -1.836,-0.336 -2.453,-1.016 -0.613,-0.688 -0.922,-1.609 -0.922,-2.766 0,-1.144 0.309,-2.062 0.922,-2.75 0.617,-0.687 1.434,-1.031 2.453,-1.031 z m 10.371,0.688 v 1.046 c -0.332,-0.312 -0.687,-0.539 -1.062,-0.687 -0.375,-0.156 -0.77,-0.234 -1.188,-0.234 -0.832,0 -1.472,0.257 -1.922,0.765 -0.437,0.512 -0.656,1.246 -0.656,2.203 0,0.961 0.219,1.696 0.656,2.203 0.45,0.512 1.09,0.766 1.922,0.766 0.418,0 0.813,-0.07 1.188,-0.219 0.375,-0.156 0.73,-0.39 1.062,-0.703 v 1.031 c -0.344,0.243 -0.707,0.418 -1.094,0.532 -0.382,0.117 -0.789,0.172 -1.218,0.172 -1.102,0 -1.973,-0.336 -2.61,-1.016 -0.632,-0.676 -0.953,-1.598 -0.953,-2.766 0,-1.164 0.321,-2.086 0.953,-2.765 0.637,-0.676 1.508,-1.016 2.61,-1.016 0.437,0 0.851,0.059 1.234,0.172 0.387,0.113 0.746,0.285 1.078,0.516 z m 5.906,-0.313 v 0.953 c -0.375,-0.176 -0.73,-0.305 -1.062,-0.39 -0.332,-0.094 -0.656,-0.141 -0.969,-0.141 -0.531,0 -0.941,0.105 -1.234,0.312 -0.293,0.211 -0.438,0.508 -0.438,0.891 0,0.324 0.094,0.57 0.282,0.734 0.199,0.168 0.566,0.297 1.109,0.391 l 0.594,0.125 c 0.726,0.149 1.269,0.399 1.625,0.75 0.351,0.344 0.531,0.813 0.531,1.406 0,0.711 -0.238,1.246 -0.719,1.61 -0.469,0.367 -1.164,0.547 -2.078,0.547 -0.344,0 -0.715,-0.04 -1.109,-0.125 -0.387,-0.071 -0.785,-0.188 -1.203,-0.344 v -1.016 c 0.406,0.231 0.796,0.403 1.171,0.516 0.383,0.113 0.766,0.172 1.141,0.172 0.563,0 0.992,-0.11 1.297,-0.328 0.312,-0.231 0.469,-0.547 0.469,-0.954 0,-0.351 -0.11,-0.628 -0.328,-0.828 -0.219,-0.207 -0.582,-0.363 -1.094,-0.468 l -0.594,-0.11 c -0.738,-0.144 -1.277,-0.375 -1.609,-0.687 -0.325,-0.313 -0.485,-0.75 -0.485,-1.313 0,-0.644 0.223,-1.148 0.672,-1.515 0.457,-0.375 1.086,-0.563 1.891,-0.563 0.344,0 0.691,0.031 1.047,0.094 0.351,0.062 0.718,0.156 1.093,0.281 z m 5.051,3.109 c 0.469,0.106 0.832,0.321 1.094,0.641 0.27,0.313 0.406,0.703 0.406,1.172 0,0.719 -0.25,1.277 -0.75,1.672 -0.492,0.398 -1.191,0.594 -2.109,0.594 -0.305,0 -0.613,-0.032 -0.938,-0.094 -0.324,-0.063 -0.656,-0.149 -1,-0.266 v -0.953 c 0.27,0.156 0.567,0.277 0.891,0.359 0.332,0.086 0.676,0.125 1.031,0.125 0.614,0 1.082,-0.117 1.407,-0.359 0.324,-0.25 0.484,-0.609 0.484,-1.078 0,-0.426 -0.152,-0.762 -0.453,-1 -0.305,-0.238 -0.719,-0.359 -1.25,-0.359 h -0.86 v -0.813 h 0.891 c 0.488,0 0.859,-0.098 1.109,-0.297 0.258,-0.195 0.391,-0.476 0.391,-0.844 0,-0.363 -0.137,-0.644 -0.406,-0.843 -0.262,-0.207 -0.637,-0.313 -1.125,-0.313 -0.274,0 -0.563,0.031 -0.875,0.094 -0.313,0.055 -0.653,0.141 -1.016,0.266 v -0.875 c 0.375,-0.106 0.723,-0.18 1.047,-0.235 0.332,-0.051 0.641,-0.078 0.922,-0.078 0.75,0 1.344,0.172 1.781,0.516 0.438,0.336 0.656,0.793 0.656,1.375 0,0.406 -0.117,0.75 -0.343,1.031 -0.231,0.273 -0.559,0.461 -0.985,0.562" /><g
         transform="scale(1,-1)"
         id="g62"><path
           id="path64"
           style="fill:none;stroke:#000000;stroke-width:1;stroke-linecap:butt;stroke-linejoin:miter;stroke-miterlimit:1.45000005;stroke-dasharray:none;stroke-opacity:1"
           d="m 413,-178 5,12.5 h 40 l 5,-12.5 -5,-12.5 h -40 z" /></g><path
         id="path66"
         style="fill:#000000;fill-opacity:1;fill-rule:nonzero;stroke:none"
         d="m 125.285,24.164 h 0.985 v 7.297 h -0.985 z m 2.949,0 h 0.985 v 6.469 h 3.547 v 0.828 h -4.532 z m 5.821,6.469 h 1.625 V 25.07 l -1.766,0.344 v -0.891 l 1.75,-0.359 h 0.984 v 6.469 h 1.61 v 0.828 h -4.203 z m 7.05,0 h 3.438 v 0.828 h -4.625 v -0.828 c 0.375,-0.387 0.887,-0.906 1.531,-1.563 0.645,-0.656 1.055,-1.078 1.219,-1.265 0.312,-0.352 0.531,-0.649 0.656,-0.891 0.125,-0.25 0.188,-0.492 0.188,-0.734 0,-0.383 -0.133,-0.696 -0.407,-0.938 -0.269,-0.25 -0.625,-0.375 -1.062,-0.375 -0.313,0 -0.641,0.059 -0.984,0.172 -0.332,0.106 -0.7,0.266 -1.094,0.484 v -1 c 0.394,-0.156 0.765,-0.277 1.109,-0.359 0.344,-0.082 0.66,-0.125 0.953,-0.125 0.75,0 1.352,0.188 1.797,0.563 0.457,0.375 0.688,0.882 0.688,1.515 0,0.305 -0.059,0.59 -0.172,0.86 -0.113,0.261 -0.317,0.574 -0.61,0.937 -0.082,0.094 -0.343,0.371 -0.781,0.828 -0.437,0.449 -1.051,1.078 -1.844,1.891 z m 10.067,-2.125 v 0.437 h -4.141 c 0.039,0.617 0.231,1.086 0.563,1.407 0.332,0.324 0.797,0.484 1.39,0.484 0.344,0 0.676,-0.039 1,-0.125 0.332,-0.082 0.657,-0.207 0.969,-0.375 v 0.844 c -0.324,0.136 -0.656,0.242 -1,0.312 -0.336,0.074 -0.672,0.11 -1.015,0.11 -0.876,0 -1.571,-0.25 -2.079,-0.75 -0.511,-0.508 -0.765,-1.204 -0.765,-2.079 0,-0.894 0.238,-1.601 0.718,-2.125 0.489,-0.519 1.145,-0.781 1.969,-0.781 0.739,0 1.324,0.235 1.75,0.703 0.426,0.469 0.641,1.118 0.641,1.938 z m -0.906,-0.266 c 0,-0.488 -0.137,-0.879 -0.407,-1.172 -0.269,-0.3 -0.625,-0.453 -1.062,-0.453 -0.512,0 -0.918,0.149 -1.219,0.438 -0.293,0.281 -0.465,0.679 -0.516,1.187 h 3.204" /><g
         transform="scale(1,-1)"
         id="g68"><path
           id="path70"
           style="fill:none;stroke:#000000;stroke-width:1;stroke-linecap:butt;stroke-linejoin:miter;stroke-miterlimit:1.45000005;stroke-dasharray:none;stroke-opacity:1"
           d="m 113,-28 25,12.5 25,-12.5 -25,-12.5 z" /></g><path
         id="path72"
         style="fill:#000000;fill-opacity:1;fill-rule:nonzero;stroke:none"
         d="m 499.734,93.344 h 6.172 v 0.844 h -2.594 v 6.453 h -0.984 v -6.453 h -2.594 z m 12.094,6.25 v -1.953 h -1.609 v -0.813 h 2.578 v 3.141 c -0.375,0.261 -0.793,0.465 -1.25,0.609 -0.461,0.137 -0.949,0.203 -1.469,0.203 -1.148,0 -2.043,-0.332 -2.687,-1 -0.637,-0.664 -0.953,-1.593 -0.953,-2.781 0,-1.188 0.316,-2.113 0.953,-2.781 0.644,-0.664 1.539,-1 2.687,-1 0.469,0 0.914,0.058 1.344,0.172 0.437,0.117 0.832,0.289 1.187,0.515 v 1.063 c -0.367,-0.313 -0.75,-0.547 -1.156,-0.703 -0.406,-0.157 -0.84,-0.235 -1.297,-0.235 -0.898,0 -1.57,0.25 -2.015,0.75 -0.438,0.492 -0.657,1.231 -0.657,2.219 0,0.992 0.219,1.734 0.657,2.234 0.445,0.493 1.117,0.735 2.015,0.735 0.352,0 0.664,-0.024 0.938,-0.078 0.269,-0.063 0.515,-0.161 0.734,-0.297 z m 2.777,-6.25 h 4.188 v 0.844 h -3.203 v 2.14 h 2.89 v 0.828 h -2.89 v 3.485 h -0.985 z m 6.739,3.812 v 2.672 h 1.578 c 0.531,0 0.922,-0.109 1.172,-0.328 0.261,-0.219 0.39,-0.555 0.39,-1.016 0,-0.449 -0.129,-0.781 -0.39,-1 -0.25,-0.218 -0.641,-0.328 -1.172,-0.328 z m 0,-3 v 2.203 h 1.453 c 0.488,0 0.848,-0.086 1.078,-0.265 0.238,-0.188 0.359,-0.461 0.359,-0.828 0,-0.375 -0.121,-0.649 -0.359,-0.828 -0.23,-0.188 -0.59,-0.282 -1.078,-0.282 z m -0.985,-0.812 h 2.516 c 0.75,0 1.328,0.156 1.734,0.468 0.407,0.313 0.61,0.762 0.61,1.344 0,0.449 -0.106,0.805 -0.313,1.063 -0.211,0.261 -0.511,0.422 -0.906,0.484 0.48,0.106 0.855,0.324 1.125,0.656 0.27,0.336 0.406,0.746 0.406,1.235 0,0.656 -0.222,1.164 -0.672,1.515 -0.437,0.356 -1.07,0.532 -1.89,0.532 h -2.61 v -7.297" /><path
         id="path74"
         style="fill:#000000;fill-opacity:1;fill-rule:nonzero;stroke:none"
         d="m 500.422,105.234 v 0.954 c -0.375,-0.176 -0.731,-0.305 -1.067,-0.391 -0.332,-0.094 -0.656,-0.141 -0.964,-0.141 -0.536,0 -0.946,0.106 -1.239,0.313 -0.289,0.211 -0.433,0.508 -0.433,0.89 0,0.325 0.093,0.571 0.277,0.735 0.199,0.168 0.57,0.297 1.109,0.39 l 0.594,0.125 c 0.731,0.149 1.274,0.399 1.625,0.75 0.356,0.344 0.531,0.813 0.531,1.407 0,0.711 -0.238,1.246 -0.714,1.609 -0.469,0.367 -1.164,0.547 -2.079,0.547 -0.343,0 -0.714,-0.039 -1.113,-0.125 -0.383,-0.07 -0.785,-0.188 -1.203,-0.344 v -1.015 c 0.406,0.23 0.801,0.402 1.176,0.515 0.383,0.117 0.766,0.172 1.14,0.172 0.559,0 0.993,-0.109 1.293,-0.328 0.317,-0.227 0.469,-0.547 0.469,-0.953 0,-0.352 -0.105,-0.629 -0.328,-0.828 -0.219,-0.207 -0.582,-0.364 -1.094,-0.469 l -0.59,-0.109 c -0.742,-0.145 -1.277,-0.376 -1.613,-0.688 -0.32,-0.312 -0.48,-0.75 -0.48,-1.312 0,-0.645 0.222,-1.153 0.672,-1.516 0.457,-0.375 1.086,-0.563 1.886,-0.563 0.344,0 0.696,0.032 1.047,0.094 0.356,0.063 0.723,0.156 1.098,0.281 z m 1.973,-0.25 h 1.464 l 1.864,4.969 1.875,-4.969 h 1.464 v 7.297 h -0.964 v -6.406 l -1.875,5 h -1 l -1.875,-5 v 6.406 h -0.953 z m 11.062,0.985 -1.344,3.625 h 2.688 z m -0.562,-0.985 h 1.125 l 2.781,7.297 h -1.031 l -0.672,-1.875 h -3.282 l -0.656,1.875 h -1.047 z m 5.953,0.813 v 5.672 h 1.183 c 1.012,0 1.746,-0.223 2.203,-0.672 0.469,-0.457 0.704,-1.18 0.704,-2.172 0,-0.977 -0.235,-1.691 -0.704,-2.141 -0.457,-0.457 -1.191,-0.687 -2.203,-0.687 z m -0.989,-0.813 h 2.036 c 1.406,0 2.433,0.297 3.089,0.891 0.668,0.586 1,1.5 1,2.75 0,1.262 -0.332,2.187 -1,2.781 -0.656,0.586 -1.683,0.875 -3.089,0.875 h -2.036 z m 10.782,3.36 c 0.468,0.105 0.832,0.316 1.093,0.64 0.27,0.313 0.407,0.704 0.407,1.172 0,0.719 -0.25,1.278 -0.75,1.672 -0.493,0.399 -1.196,0.594 -2.11,0.594 -0.304,0 -0.617,-0.031 -0.937,-0.094 -0.324,-0.062 -0.656,-0.148 -1,-0.266 v -0.953 c 0.269,0.157 0.566,0.278 0.89,0.36 0.332,0.086 0.676,0.125 1.032,0.125 0.613,0 1.082,-0.117 1.406,-0.36 0.32,-0.25 0.484,-0.609 0.484,-1.078 0,-0.426 -0.152,-0.758 -0.453,-1 -0.305,-0.238 -0.719,-0.359 -1.25,-0.359 h -0.859 v -0.813 h 0.89 c 0.489,0 0.86,-0.097 1.11,-0.296 0.258,-0.196 0.39,-0.477 0.39,-0.844 0,-0.364 -0.136,-0.645 -0.406,-0.844 -0.262,-0.207 -0.637,-0.312 -1.125,-0.312 -0.273,0 -0.562,0.031 -0.875,0.093 -0.312,0.055 -0.652,0.141 -1.016,0.266 v -0.875 c 0.376,-0.102 0.723,-0.18 1.047,-0.234 0.332,-0.051 0.641,-0.079 0.922,-0.079 0.75,0 1.344,0.172 1.781,0.516 0.438,0.336 0.657,0.793 0.657,1.375 0,0.406 -0.117,0.75 -0.344,1.031 -0.23,0.274 -0.559,0.461 -0.984,0.563" /><g
         transform="scale(1,-1)"
         id="g76"><path
           id="path78"
           style="fill:none;stroke:#000000;stroke-width:1;stroke-linecap:butt;stroke-linejoin:miter;stroke-miterlimit:1.45000005;stroke-dasharray:none;stroke-opacity:1"
           d="m 538,-103 c 0,-8.285 -11.191,-15 -25,-15 -13.809,0 -25,6.715 -25,15 0,8.285 11.191,15 25,15 13.809,0 25,-6.715 25,-15 z" /></g><path
         id="path80"
         style="fill:#000000;fill-opacity:1;fill-rule:nonzero;stroke:none"
         d="m 126.402,174.414 v 0.953 c -0.375,-0.176 -0.726,-0.305 -1.062,-0.39 -0.332,-0.094 -0.656,-0.141 -0.969,-0.141 -0.531,0 -0.941,0.105 -1.234,0.312 -0.289,0.211 -0.438,0.508 -0.438,0.891 0,0.324 0.098,0.57 0.281,0.734 0.2,0.168 0.571,0.297 1.11,0.391 l 0.594,0.125 c 0.73,0.149 1.273,0.399 1.625,0.75 0.355,0.344 0.531,0.813 0.531,1.406 0,0.711 -0.238,1.246 -0.719,1.61 -0.469,0.367 -1.16,0.547 -2.074,0.547 -0.348,0 -0.715,-0.04 -1.113,-0.125 -0.383,-0.071 -0.786,-0.188 -1.204,-0.344 v -1.016 c 0.407,0.231 0.797,0.403 1.172,0.516 0.387,0.113 0.77,0.172 1.145,0.172 0.558,0 0.992,-0.11 1.293,-0.328 0.312,-0.231 0.469,-0.547 0.469,-0.954 0,-0.351 -0.11,-0.628 -0.329,-0.828 -0.218,-0.207 -0.582,-0.363 -1.093,-0.468 l -0.59,-0.11 c -0.742,-0.144 -1.277,-0.375 -1.613,-0.687 -0.321,-0.313 -0.485,-0.75 -0.485,-1.313 0,-0.644 0.227,-1.148 0.672,-1.515 0.461,-0.375 1.09,-0.563 1.891,-0.563 0.343,0 0.695,0.031 1.047,0.094 0.355,0.062 0.718,0.156 1.093,0.281 z m 4.926,0.422 c -0.719,0 -1.285,0.273 -1.699,0.812 -0.418,0.532 -0.625,1.258 -0.625,2.172 0,0.918 0.207,1.649 0.625,2.188 0.414,0.531 0.98,0.797 1.699,0.797 0.719,0 1.289,-0.266 1.703,-0.797 0.418,-0.539 0.625,-1.27 0.625,-2.188 0,-0.914 -0.207,-1.64 -0.625,-2.172 -0.414,-0.539 -0.984,-0.812 -1.703,-0.812 z m 0,-0.797 c 1.024,0 1.84,0.344 2.453,1.031 0.617,0.688 0.922,1.606 0.922,2.75 0,1.149 -0.305,2.063 -0.922,2.75 -0.613,0.688 -1.429,1.032 -2.453,1.032 -1.019,0 -1.836,-0.336 -2.449,-1.016 -0.617,-0.688 -0.926,-1.609 -0.926,-2.766 0,-1.144 0.309,-2.062 0.926,-2.75 0.613,-0.687 1.43,-1.031 2.449,-1.031 z m 10.371,0.688 v 1.046 c -0.332,-0.312 -0.687,-0.539 -1.062,-0.687 -0.375,-0.156 -0.77,-0.234 -1.188,-0.234 -0.832,0 -1.472,0.257 -1.922,0.765 -0.437,0.512 -0.656,1.246 -0.656,2.203 0,0.961 0.219,1.696 0.656,2.203 0.45,0.512 1.09,0.766 1.922,0.766 0.418,0 0.813,-0.07 1.188,-0.219 0.375,-0.156 0.73,-0.39 1.062,-0.703 v 1.031 c -0.344,0.243 -0.707,0.418 -1.094,0.532 -0.382,0.117 -0.789,0.172 -1.218,0.172 -1.102,0 -1.973,-0.336 -2.61,-1.016 -0.632,-0.676 -0.953,-1.598 -0.953,-2.766 0,-1.164 0.321,-2.086 0.953,-2.765 0.637,-0.676 1.508,-1.016 2.61,-1.016 0.437,0 0.851,0.059 1.234,0.172 0.387,0.113 0.746,0.285 1.078,0.516 z m 5.906,-0.313 v 0.953 c -0.375,-0.176 -0.73,-0.305 -1.062,-0.39 -0.332,-0.094 -0.656,-0.141 -0.969,-0.141 -0.531,0 -0.941,0.105 -1.234,0.312 -0.293,0.211 -0.438,0.508 -0.438,0.891 0,0.324 0.094,0.57 0.282,0.734 0.199,0.168 0.566,0.297 1.109,0.391 l 0.594,0.125 c 0.726,0.149 1.269,0.399 1.625,0.75 0.351,0.344 0.531,0.813 0.531,1.406 0,0.711 -0.238,1.246 -0.719,1.61 -0.469,0.367 -1.164,0.547 -2.078,0.547 -0.344,0 -0.715,-0.04 -1.109,-0.125 -0.387,-0.071 -0.785,-0.188 -1.203,-0.344 v -1.016 c 0.406,0.231 0.796,0.403 1.171,0.516 0.383,0.113 0.766,0.172 1.141,0.172 0.563,0 0.992,-0.11 1.297,-0.328 0.312,-0.231 0.469,-0.547 0.469,-0.954 0,-0.351 -0.11,-0.628 -0.328,-0.828 -0.219,-0.207 -0.582,-0.363 -1.094,-0.468 l -0.594,-0.11 c -0.738,-0.144 -1.277,-0.375 -1.609,-0.687 -0.325,-0.313 -0.485,-0.75 -0.485,-1.313 0,-0.644 0.223,-1.148 0.672,-1.515 0.457,-0.375 1.086,-0.563 1.891,-0.563 0.344,0 0.691,0.031 1.047,0.094 0.351,0.062 0.718,0.156 1.093,0.281 z m 2.223,6.219 h 1.625 v -5.563 l -1.765,0.344 v -0.891 l 1.75,-0.359 h 0.984 v 6.469 h 1.609 v 0.828 h -4.203 v -0.828" /><g
         transform="scale(1,-1)"
         id="g82"><path
           id="path84"
           style="fill:none;stroke:#000000;stroke-width:1;stroke-linecap:butt;stroke-linejoin:miter;stroke-miterlimit:1.45000005;stroke-dasharray:none;stroke-opacity:1"
           d="m 113,-178 5,12.5 h 40 l 5,-12.5 -5,-12.5 h -40 z" /></g><path
         id="path86"
         style="fill:#000000;fill-opacity:1;fill-rule:nonzero;stroke:none"
         d="m 48.941,24.164 h 0.985 v 7.297 h -0.985 z m 2.95,0 h 4.187 v 0.844 h -3.203 v 2.14 h 2.891 v 0.829 h -2.891 v 3.484 h -0.984 z m 5.754,0 h 1.328 l 3.234,6.109 v -6.109 h 0.953 v 7.297 h -1.328 l -3.234,-6.094 v 6.094 h -0.953 z m 12.449,6.25 v -1.953 h -1.61 v -0.813 h 2.578 v 3.141 c -0.374,0.262 -0.792,0.465 -1.25,0.609 -0.46,0.137 -0.949,0.204 -1.468,0.204 -1.145,0 -2.043,-0.332 -2.688,-1 -0.636,-0.664 -0.953,-1.594 -0.953,-2.782 0,-1.187 0.317,-2.113 0.953,-2.781 0.645,-0.668 1.543,-1 2.688,-1 0.468,0 0.918,0.059 1.344,0.172 0.437,0.117 0.832,0.285 1.187,0.516 v 1.062 c -0.363,-0.312 -0.75,-0.547 -1.156,-0.703 -0.407,-0.156 -0.84,-0.234 -1.297,-0.234 -0.895,0 -1.57,0.25 -2.016,0.75 -0.437,0.492 -0.656,1.23 -0.656,2.218 0,0.992 0.219,1.735 0.656,2.235 0.446,0.492 1.121,0.734 2.016,0.734 0.355,0 0.668,-0.023 0.937,-0.078 0.27,-0.063 0.516,-0.16 0.735,-0.297 z m 7.422,-1.906 v 0.437 h -4.141 c 0.039,0.617 0.227,1.086 0.563,1.407 0.332,0.324 0.796,0.484 1.39,0.484 0.344,0 0.676,-0.039 1,-0.125 0.332,-0.082 0.656,-0.207 0.969,-0.375 v 0.844 c -0.324,0.136 -0.656,0.242 -1,0.312 -0.336,0.074 -0.672,0.11 -1.016,0.11 -0.875,0 -1.57,-0.25 -2.078,-0.75 -0.512,-0.508 -0.765,-1.204 -0.765,-2.079 0,-0.894 0.238,-1.601 0.718,-2.125 0.489,-0.519 1.145,-0.781 1.969,-0.781 0.738,0 1.32,0.235 1.75,0.703 0.426,0.469 0.641,1.118 0.641,1.938 z m -0.907,-0.266 c 0,-0.488 -0.136,-0.879 -0.406,-1.172 -0.273,-0.3 -0.625,-0.453 -1.062,-0.453 -0.512,0 -0.918,0.149 -1.219,0.438 -0.293,0.281 -0.465,0.679 -0.516,1.187 h 3.203" /><g
         transform="scale(1,-1)"
         id="g88"><path
           id="path90"
           style="fill:none;stroke:#000000;stroke-width:1;stroke-linecap:butt;stroke-linejoin:miter;stroke-miterlimit:1.45000005;stroke-dasharray:none;stroke-opacity:1"
           d="M 38,-28 63,-15.5 88,-28 63,-40.5 Z" /></g><path
         id="path92"
         style="fill:#000000;fill-opacity:1;fill-rule:nonzero;stroke:none"
         d="m 281.543,93.344 h 0.984 v 7.297 h -0.984 z m 2.949,0 h 0.985 v 6.468 h 3.546 v 0.829 h -4.531 z M 291,99.812 h 3.438 v 0.829 h -4.626 v -0.829 c 0.376,-0.382 0.887,-0.906 1.532,-1.562 0.648,-0.656 1.054,-1.078 1.218,-1.266 0.313,-0.351 0.532,-0.648 0.657,-0.89 0.125,-0.25 0.187,-0.492 0.187,-0.735 0,-0.382 -0.133,-0.699 -0.406,-0.937 -0.27,-0.25 -0.625,-0.375 -1.062,-0.375 -0.313,0 -0.641,0.058 -0.985,0.172 -0.332,0.105 -0.695,0.265 -1.094,0.484 v -1 c 0.399,-0.156 0.766,-0.273 1.11,-0.359 0.343,-0.082 0.664,-0.125 0.953,-0.125 0.75,0 1.351,0.187 1.797,0.562 0.461,0.375 0.687,0.879 0.687,1.516 0,0.305 -0.054,0.59 -0.172,0.859 -0.113,0.262 -0.316,0.574 -0.609,0.938 -0.082,0.094 -0.344,0.371 -0.781,0.828 -0.438,0.449 -1.051,1.078 -1.844,1.89" /><path
         id="path94"
         style="fill:#000000;fill-opacity:1;fill-rule:nonzero;stroke:none"
         d="m 277.477,105.234 v 0.954 c -0.375,-0.176 -0.731,-0.305 -1.063,-0.391 -0.336,-0.094 -0.656,-0.141 -0.969,-0.141 -0.531,0 -0.941,0.106 -1.234,0.313 -0.293,0.211 -0.438,0.508 -0.438,0.89 0,0.325 0.094,0.571 0.282,0.735 0.199,0.168 0.566,0.297 1.109,0.39 l 0.594,0.125 c 0.726,0.149 1.269,0.399 1.625,0.75 0.351,0.344 0.531,0.813 0.531,1.407 0,0.711 -0.238,1.246 -0.719,1.609 -0.468,0.367 -1.164,0.547 -2.078,0.547 -0.344,0 -0.715,-0.039 -1.109,-0.125 -0.387,-0.07 -0.789,-0.188 -1.203,-0.344 v -1.015 c 0.406,0.23 0.797,0.402 1.172,0.515 0.382,0.117 0.765,0.172 1.14,0.172 0.563,0 0.992,-0.109 1.297,-0.328 0.313,-0.227 0.469,-0.547 0.469,-0.953 0,-0.352 -0.11,-0.629 -0.328,-0.828 -0.219,-0.207 -0.586,-0.364 -1.094,-0.469 l -0.594,-0.109 c -0.738,-0.145 -1.277,-0.376 -1.609,-0.688 -0.324,-0.312 -0.485,-0.75 -0.485,-1.312 0,-0.645 0.223,-1.153 0.672,-1.516 0.457,-0.375 1.086,-0.563 1.891,-0.563 0.344,0 0.691,0.032 1.047,0.094 0.351,0.063 0.719,0.156 1.094,0.281 z m 0.957,-0.25 h 6.171 v 0.844 h -2.593 v 6.453 h -0.985 v -6.453 h -2.593 z m 9.558,0.985 -1.344,3.625 h 2.692 z m -0.558,-0.985 h 1.125 l 2.781,7.297 h -1.031 l -0.672,-1.875 h -3.282 l -0.66,1.875 h -1.047 z m 3.949,0 h 6.172 v 0.844 h -2.594 v 6.453 h -0.984 v -6.453 h -2.594 z m 7.219,0 h 3.875 v 0.844 h -2.969 v 1.781 c 0.144,-0.05 0.285,-0.086 0.422,-0.109 0.144,-0.02 0.289,-0.031 0.433,-0.031 0.817,0 1.453,0.226 1.922,0.672 0.481,0.437 0.723,1.039 0.723,1.797 0,0.792 -0.246,1.406 -0.738,1.843 -0.477,0.43 -1.165,0.641 -2.059,0.641 -0.305,0 -0.617,-0.024 -0.941,-0.078 -0.309,-0.051 -0.637,-0.129 -0.985,-0.235 v -0.984 c 0.305,0.156 0.61,0.277 0.926,0.359 0.309,0.075 0.641,0.11 0.98,0.11 0.567,0 1.008,-0.145 1.329,-0.438 0.335,-0.301 0.5,-0.707 0.5,-1.218 0,-0.5 -0.165,-0.895 -0.5,-1.188 -0.321,-0.301 -0.762,-0.453 -1.329,-0.453 -0.257,0 -0.523,0.031 -0.796,0.094 -0.258,0.054 -0.524,0.14 -0.793,0.265 v -3.672" /><g
         transform="scale(1,-1)"
         id="g96"><path
           id="path98"
           style="fill:none;stroke:#000000;stroke-width:1;stroke-linecap:butt;stroke-linejoin:miter;stroke-miterlimit:1.45000005;stroke-dasharray:none;stroke-opacity:1"
           d="m 313,-103 c 0,-8.285 -11.191,-15 -25,-15 -13.809,0 -25,6.715 -25,15 0,8.285 11.191,15 25,15 13.809,0 25,-6.715 25,-15 z" /></g><path
         id="path100"
         style="fill:#000000;fill-opacity:1;fill-rule:nonzero;stroke:none"
         d="m 497.551,249.164 h 4.187 v 0.844 h -3.203 v 2.14 h 2.891 v 0.829 h -2.891 v 3.484 h -0.984 z m 8.707,0.672 c -0.719,0 -1.289,0.273 -1.703,0.812 -0.418,0.532 -0.625,1.258 -0.625,2.172 0,0.918 0.207,1.649 0.625,2.188 0.414,0.531 0.984,0.797 1.703,0.797 0.719,0 1.285,-0.266 1.703,-0.797 0.414,-0.539 0.625,-1.27 0.625,-2.188 0,-0.914 -0.211,-1.64 -0.625,-2.172 -0.418,-0.539 -0.984,-0.812 -1.703,-0.812 z m 0,-0.797 c 1.019,0 1.836,0.344 2.453,1.031 0.613,0.688 0.922,1.606 0.922,2.75 0,1.149 -0.309,2.063 -0.922,2.75 -0.617,0.688 -1.434,1.032 -2.453,1.032 -1.024,0 -1.84,-0.336 -2.453,-1.016 -0.617,-0.688 -0.922,-1.609 -0.922,-2.766 0,-1.144 0.305,-2.062 0.922,-2.75 0.613,-0.687 1.429,-1.031 2.453,-1.031 z m 4.558,0.125 h 1.063 l 1.812,2.719 1.829,-2.719 h 1.046 l -2.343,3.5 2.5,3.797 h -1.047 l -2.063,-3.094 -2.062,3.094 h -1.063 l 2.61,-3.891 z m 8.192,0.813 v 2.75 h 1.234 c 0.461,0 0.813,-0.118 1.063,-0.36 0.261,-0.238 0.39,-0.578 0.39,-1.015 0,-0.438 -0.129,-0.778 -0.39,-1.016 -0.25,-0.238 -0.602,-0.359 -1.063,-0.359 z m -0.985,-0.813 h 2.219 c 0.824,0 1.446,0.188 1.86,0.563 0.418,0.367 0.625,0.906 0.625,1.625 0,0.718 -0.207,1.261 -0.625,1.625 -0.414,0.367 -1.036,0.546 -1.86,0.546 h -1.234 v 2.938 h -0.985 z m 9.11,3.359 c 0.469,0.106 0.836,0.321 1.094,0.641 0.269,0.313 0.406,0.703 0.406,1.172 0,0.719 -0.25,1.277 -0.75,1.672 -0.488,0.398 -1.192,0.594 -2.11,0.594 -0.3,0 -0.613,-0.032 -0.937,-0.094 -0.32,-0.063 -0.656,-0.149 -1,-0.266 v -0.953 c 0.269,0.156 0.566,0.277 0.891,0.359 0.332,0.086 0.675,0.125 1.031,0.125 0.613,0 1.086,-0.117 1.406,-0.359 0.324,-0.25 0.484,-0.609 0.484,-1.078 0,-0.426 -0.152,-0.762 -0.453,-1 -0.3,-0.238 -0.718,-0.359 -1.25,-0.359 h -0.859 v -0.813 h 0.891 c 0.492,0 0.859,-0.098 1.109,-0.297 0.262,-0.195 0.391,-0.476 0.391,-0.844 0,-0.363 -0.133,-0.644 -0.407,-0.843 -0.261,-0.207 -0.636,-0.313 -1.125,-0.313 -0.269,0 -0.562,0.031 -0.875,0.094 -0.312,0.055 -0.648,0.141 -1.015,0.266 v -0.875 c 0.375,-0.106 0.722,-0.18 1.047,-0.235 0.332,-0.051 0.64,-0.078 0.921,-0.078 0.75,0 1.344,0.172 1.782,0.516 0.437,0.336 0.656,0.793 0.656,1.375 0,0.406 -0.113,0.75 -0.344,1.031 -0.226,0.273 -0.558,0.461 -0.984,0.562" /><g
         transform="scale(1,-1)"
         id="g102"><path
           id="path104"
           style="fill:none;stroke:#000000;stroke-width:1;stroke-linecap:butt;stroke-linejoin:miter;stroke-miterlimit:1.45000005;stroke-dasharray:none;stroke-opacity:1"
           d="m 488,-240.5 h 50 v -25 h -50 z" /></g><path
         id="path106"
         style="fill:#000000;fill-opacity:1;fill-rule:nonzero;stroke:none"
         d="m 276.402,174.414 v 0.953 c -0.375,-0.176 -0.726,-0.305 -1.062,-0.39 -0.332,-0.094 -0.656,-0.141 -0.969,-0.141 -0.531,0 -0.941,0.105 -1.234,0.312 -0.289,0.211 -0.438,0.508 -0.438,0.891 0,0.324 0.094,0.57 0.281,0.734 0.2,0.168 0.571,0.297 1.11,0.391 l 0.594,0.125 c 0.73,0.149 1.273,0.399 1.625,0.75 0.355,0.344 0.531,0.813 0.531,1.406 0,0.711 -0.238,1.246 -0.719,1.61 -0.469,0.367 -1.16,0.547 -2.078,0.547 -0.344,0 -0.711,-0.04 -1.109,-0.125 -0.383,-0.071 -0.786,-0.188 -1.204,-0.344 v -1.016 c 0.407,0.231 0.797,0.403 1.172,0.516 0.387,0.113 0.766,0.172 1.141,0.172 0.562,0 0.996,-0.11 1.297,-0.328 0.312,-0.231 0.469,-0.547 0.469,-0.954 0,-0.351 -0.11,-0.628 -0.329,-0.828 -0.218,-0.207 -0.582,-0.363 -1.093,-0.468 l -0.594,-0.11 c -0.738,-0.144 -1.273,-0.375 -1.609,-0.687 -0.321,-0.313 -0.485,-0.75 -0.485,-1.313 0,-0.644 0.227,-1.148 0.672,-1.515 0.461,-0.375 1.09,-0.563 1.891,-0.563 0.343,0 0.695,0.031 1.047,0.094 0.355,0.062 0.718,0.156 1.093,0.281 z m 4.926,0.422 c -0.719,0 -1.285,0.273 -1.703,0.812 -0.414,0.532 -0.625,1.258 -0.625,2.172 0,0.918 0.211,1.649 0.625,2.188 0.418,0.531 0.984,0.797 1.703,0.797 0.719,0 1.289,-0.266 1.703,-0.797 0.418,-0.539 0.625,-1.27 0.625,-2.188 0,-0.914 -0.207,-1.64 -0.625,-2.172 -0.414,-0.539 -0.984,-0.812 -1.703,-0.812 z m 0,-0.797 c 1.024,0 1.84,0.344 2.453,1.031 0.617,0.688 0.922,1.606 0.922,2.75 0,1.149 -0.305,2.063 -0.922,2.75 -0.613,0.688 -1.429,1.032 -2.453,1.032 -1.019,0 -1.836,-0.336 -2.453,-1.016 -0.613,-0.688 -0.922,-1.609 -0.922,-2.766 0,-1.144 0.309,-2.062 0.922,-2.75 0.617,-0.687 1.434,-1.031 2.453,-1.031 z m 10.371,0.688 v 1.046 c -0.332,-0.312 -0.687,-0.539 -1.062,-0.687 -0.375,-0.156 -0.77,-0.234 -1.188,-0.234 -0.832,0 -1.472,0.257 -1.922,0.765 -0.437,0.512 -0.656,1.246 -0.656,2.203 0,0.961 0.219,1.696 0.656,2.203 0.45,0.512 1.09,0.766 1.922,0.766 0.418,0 0.813,-0.07 1.188,-0.219 0.375,-0.156 0.73,-0.39 1.062,-0.703 v 1.031 c -0.344,0.243 -0.707,0.418 -1.094,0.532 -0.382,0.117 -0.789,0.172 -1.218,0.172 -1.102,0 -1.973,-0.336 -2.61,-1.016 -0.632,-0.676 -0.953,-1.598 -0.953,-2.766 0,-1.164 0.321,-2.086 0.953,-2.765 0.637,-0.676 1.508,-1.016 2.61,-1.016 0.437,0 0.851,0.059 1.234,0.172 0.387,0.113 0.746,0.285 1.078,0.516 z m 5.906,-0.313 v 0.953 c -0.375,-0.176 -0.73,-0.305 -1.062,-0.39 -0.332,-0.094 -0.656,-0.141 -0.969,-0.141 -0.531,0 -0.941,0.105 -1.234,0.312 -0.293,0.211 -0.438,0.508 -0.438,0.891 0,0.324 0.094,0.57 0.282,0.734 0.199,0.168 0.566,0.297 1.109,0.391 l 0.594,0.125 c 0.726,0.149 1.269,0.399 1.625,0.75 0.351,0.344 0.531,0.813 0.531,1.406 0,0.711 -0.238,1.246 -0.719,1.61 -0.469,0.367 -1.164,0.547 -2.078,0.547 -0.344,0 -0.715,-0.04 -1.109,-0.125 -0.387,-0.071 -0.785,-0.188 -1.203,-0.344 v -1.016 c 0.406,0.231 0.796,0.403 1.171,0.516 0.383,0.113 0.766,0.172 1.141,0.172 0.563,0 0.992,-0.11 1.297,-0.328 0.312,-0.231 0.469,-0.547 0.469,-0.954 0,-0.351 -0.11,-0.628 -0.328,-0.828 -0.219,-0.207 -0.582,-0.363 -1.094,-0.468 l -0.594,-0.11 c -0.738,-0.144 -1.277,-0.375 -1.609,-0.687 -0.325,-0.313 -0.485,-0.75 -0.485,-1.313 0,-0.644 0.223,-1.148 0.672,-1.515 0.457,-0.375 1.086,-0.563 1.891,-0.563 0.344,0 0.691,0.031 1.047,0.094 0.351,0.062 0.718,0.156 1.093,0.281 z m 2.911,6.219 h 3.437 v 0.828 h -4.625 v -0.828 c 0.375,-0.387 0.887,-0.906 1.531,-1.563 0.645,-0.656 1.051,-1.078 1.219,-1.265 0.313,-0.356 0.531,-0.649 0.656,-0.891 0.125,-0.25 0.188,-0.492 0.188,-0.734 0,-0.383 -0.137,-0.696 -0.406,-0.938 -0.274,-0.25 -0.625,-0.375 -1.063,-0.375 -0.312,0 -0.641,0.059 -0.984,0.172 -0.332,0.106 -0.699,0.266 -1.094,0.484 v -1 c 0.395,-0.156 0.766,-0.277 1.109,-0.359 0.344,-0.082 0.661,-0.125 0.954,-0.125 0.75,0 1.347,0.188 1.796,0.563 0.457,0.375 0.688,0.882 0.688,1.515 0,0.305 -0.059,0.59 -0.172,0.86 -0.113,0.261 -0.316,0.574 -0.609,0.937 -0.082,0.094 -0.344,0.371 -0.782,0.828 -0.437,0.449 -1.05,1.078 -1.843,1.891" /><g
         transform="scale(1,-1)"
         id="g108"><path
           id="path110"
           style="fill:none;stroke:#000000;stroke-width:1;stroke-linecap:butt;stroke-linejoin:miter;stroke-miterlimit:1.45000005;stroke-dasharray:none;stroke-opacity:1"
           d="m 263,-178 5,12.5 h 40 l 5,-12.5 -5,-12.5 h -40 z" /></g><path
         id="path112"
         style="fill:#000000;fill-opacity:1;fill-rule:nonzero;stroke:none"
         d="m 278.469,24.164 h 0.98 v 7.297 h -0.98 z m 2.945,0 h 0.984 v 6.469 h 3.547 v 0.828 h -4.531 z m 6.512,6.469 h 3.437 v 0.828 h -4.625 v -0.828 c 0.375,-0.387 0.883,-0.906 1.532,-1.563 0.644,-0.656 1.05,-1.078 1.218,-1.265 0.313,-0.352 0.532,-0.649 0.657,-0.891 0.125,-0.25 0.187,-0.492 0.187,-0.734 0,-0.383 -0.137,-0.696 -0.406,-0.938 -0.274,-0.25 -0.625,-0.375 -1.063,-0.375 -0.312,0 -0.64,0.059 -0.984,0.172 -0.332,0.106 -0.699,0.266 -1.094,0.484 v -1 c 0.395,-0.156 0.766,-0.277 1.11,-0.359 0.343,-0.082 0.66,-0.125 0.953,-0.125 0.75,0 1.347,0.188 1.797,0.563 0.457,0.375 0.687,0.882 0.687,1.515 0,0.305 -0.059,0.59 -0.172,0.86 -0.113,0.261 -0.32,0.574 -0.609,0.937 -0.086,0.094 -0.344,0.371 -0.781,0.828 -0.438,0.449 -1.055,1.078 -1.844,1.891 z m 10.062,-2.125 v 0.437 h -4.136 c 0.039,0.617 0.226,1.086 0.558,1.407 0.336,0.324 0.801,0.484 1.395,0.484 0.34,0 0.675,-0.039 1,-0.125 0.332,-0.082 0.656,-0.207 0.965,-0.375 v 0.844 c -0.321,0.136 -0.657,0.242 -1,0.312 -0.332,0.074 -0.668,0.11 -1.012,0.11 -0.875,0 -1.57,-0.25 -2.078,-0.75 -0.512,-0.508 -0.77,-1.204 -0.77,-2.079 0,-0.894 0.242,-1.601 0.723,-2.125 0.488,-0.519 1.144,-0.781 1.969,-0.781 0.738,0 1.32,0.235 1.75,0.703 0.425,0.469 0.636,1.118 0.636,1.938 z m -0.902,-0.266 c 0,-0.488 -0.137,-0.879 -0.406,-1.172 -0.274,-0.3 -0.625,-0.453 -1.067,-0.453 -0.508,0 -0.914,0.149 -1.218,0.438 -0.29,0.281 -0.461,0.679 -0.512,1.187 h 3.203" /><g
         transform="scale(1,-1)"
         id="g114"><path
           id="path116"
           style="fill:none;stroke:#000000;stroke-width:1;stroke-linecap:butt;stroke-linejoin:miter;stroke-miterlimit:1.45000005;stroke-dasharray:none;stroke-opacity:1"
           d="m 263,-28 25,12.5 25,-12.5 -25,-12.5 z" /></g><path
         id="path118"
         style="fill:#000000;fill-opacity:1;fill-rule:nonzero;stroke:none"
         d="m 203.469,24.164 h 0.98 v 7.297 h -0.98 z m 2.945,0 h 0.984 v 6.469 h 3.547 v 0.828 h -4.531 z m 8.371,0.859 -2.484,3.891 h 2.484 z m -0.265,-0.859 h 1.25 v 4.75 h 1.031 v 0.828 h -1.031 v 1.719 h -0.985 v -1.719 h -3.297 v -0.953 z m 8.468,4.344 v 0.437 h -4.136 c 0.039,0.617 0.226,1.086 0.558,1.407 0.336,0.324 0.801,0.484 1.395,0.484 0.34,0 0.675,-0.039 1,-0.125 0.332,-0.082 0.656,-0.207 0.965,-0.375 v 0.844 c -0.321,0.136 -0.657,0.242 -1,0.312 -0.332,0.074 -0.668,0.11 -1.012,0.11 -0.875,0 -1.57,-0.25 -2.078,-0.75 -0.512,-0.508 -0.77,-1.204 -0.77,-2.079 0,-0.894 0.242,-1.601 0.723,-2.125 0.488,-0.519 1.144,-0.781 1.969,-0.781 0.738,0 1.32,0.235 1.75,0.703 0.425,0.469 0.636,1.118 0.636,1.938 z m -0.902,-0.266 c 0,-0.488 -0.137,-0.879 -0.406,-1.172 -0.274,-0.3 -0.625,-0.453 -1.067,-0.453 -0.508,0 -0.914,0.149 -1.218,0.438 -0.29,0.281 -0.461,0.679 -0.512,1.187 h 3.203" /><g
         transform="scale(1,-1)"
         id="g120"><path
           id="path122"
           style="fill:none;stroke:#000000;stroke-width:1;stroke-linecap:butt;stroke-linejoin:miter;stroke-miterlimit:1.45000005;stroke-dasharray:none;stroke-opacity:1"
           d="m 188,-28 25,12.5 25,-12.5 -25,-12.5 z" /></g><path
         id="path124"
         style="fill:#000000;fill-opacity:1;fill-rule:nonzero;stroke:none"
         d="m 349.625,253.039 c 0.207,0.074 0.41,0.231 0.609,0.469 0.207,0.23 0.411,0.547 0.61,0.953 l 1,2 h -1.063 l -0.922,-1.875 c -0.238,-0.488 -0.472,-0.813 -0.703,-0.969 -0.23,-0.156 -0.535,-0.234 -0.922,-0.234 h -1.078 v 3.078 h -0.984 v -7.297 h 2.219 c 0.832,0 1.453,0.18 1.859,0.531 0.418,0.344 0.625,0.871 0.625,1.578 0,0.461 -0.109,0.84 -0.328,1.141 -0.207,0.305 -0.516,0.512 -0.922,0.625 z m -2.469,-3.062 v 2.593 h 1.235 c 0.48,0 0.839,-0.109 1.078,-0.328 0.25,-0.219 0.375,-0.543 0.375,-0.969 0,-0.425 -0.125,-0.75 -0.375,-0.968 -0.239,-0.219 -0.598,-0.328 -1.078,-0.328 z m 8.918,-0.141 c -0.719,0 -1.289,0.273 -1.703,0.812 -0.418,0.532 -0.625,1.258 -0.625,2.172 0,0.918 0.207,1.649 0.625,2.188 0.414,0.531 0.984,0.797 1.703,0.797 0.719,0 1.285,-0.266 1.703,-0.797 0.414,-0.539 0.625,-1.27 0.625,-2.188 0,-0.914 -0.211,-1.64 -0.625,-2.172 -0.418,-0.539 -0.984,-0.812 -1.703,-0.812 z m 0,-0.797 c 1.02,0 1.836,0.344 2.453,1.031 0.614,0.688 0.922,1.606 0.922,2.75 0,1.149 -0.308,2.063 -0.922,2.75 -0.617,0.688 -1.433,1.032 -2.453,1.032 -1.023,0 -1.84,-0.336 -2.453,-1.016 -0.613,-0.688 -0.922,-1.609 -0.922,-2.766 0,-1.144 0.309,-2.062 0.922,-2.75 0.613,-0.687 1.43,-1.031 2.453,-1.031 z m 8.371,4 c 0.207,0.074 0.41,0.231 0.61,0.469 0.207,0.23 0.41,0.547 0.609,0.953 l 1,2 h -1.062 l -0.922,-1.875 c -0.242,-0.488 -0.477,-0.813 -0.703,-0.969 -0.231,-0.156 -0.539,-0.234 -0.922,-0.234 h -1.078 v 3.078 h -0.985 v -7.297 h 2.219 c 0.832,0 1.453,0.18 1.859,0.531 0.414,0.344 0.625,0.871 0.625,1.578 0,0.461 -0.109,0.84 -0.328,1.141 -0.211,0.305 -0.515,0.512 -0.922,0.625 z m -2.468,-3.062 v 2.593 h 1.234 c 0.477,0 0.84,-0.109 1.078,-0.328 0.25,-0.219 0.375,-0.543 0.375,-0.969 0,-0.425 -0.125,-0.75 -0.375,-0.968 -0.238,-0.219 -0.601,-0.328 -1.078,-0.328 z m 10.929,5.437 v -1.953 h -1.605 v -0.813 h 2.578 v 3.141 c -0.375,0.262 -0.793,0.465 -1.25,0.609 -0.461,0.137 -0.949,0.204 -1.473,0.204 -1.144,0 -2.039,-0.332 -2.683,-1 -0.637,-0.664 -0.953,-1.594 -0.953,-2.782 0,-1.187 0.316,-2.113 0.953,-2.781 0.644,-0.668 1.539,-1 2.683,-1 0.473,0 0.918,0.059 1.348,0.172 0.434,0.113 0.832,0.285 1.184,0.516 v 1.062 c -0.364,-0.312 -0.75,-0.547 -1.157,-0.703 -0.402,-0.156 -0.836,-0.234 -1.297,-0.234 -0.894,0 -1.566,0.25 -2.011,0.75 -0.442,0.492 -0.661,1.23 -0.661,2.218 0,0.992 0.219,1.735 0.661,2.235 0.445,0.492 1.117,0.734 2.011,0.734 0.356,0 0.668,-0.023 0.942,-0.078 0.269,-0.063 0.512,-0.16 0.73,-0.297 z m 1.766,-6.25 h 6.172 v 0.844 h -2.594 v 6.453 h -0.984 v -6.453 h -2.594 v -0.844" /><g
         transform="scale(1,-1)"
         id="g126"><path
           id="path128"
           style="fill:none;stroke:#000000;stroke-width:1;stroke-linecap:butt;stroke-linejoin:miter;stroke-miterlimit:1.45000005;stroke-dasharray:none;stroke-opacity:1"
           d="m 338,-240.5 h 50 v -25 h -50 z" /></g><path
         id="path130"
         style="fill:#000000;fill-opacity:1;fill-rule:nonzero;stroke:none"
         d="m 353.469,24.164 h 0.98 v 7.297 h -0.98 z m 2.945,0 h 0.984 v 6.469 h 3.547 v 0.828 h -4.531 z m 7.887,3.266 c -0.438,0 -0.789,0.152 -1.047,0.453 -0.262,0.305 -0.391,0.715 -0.391,1.234 0,0.531 0.129,0.949 0.391,1.25 0.258,0.305 0.609,0.453 1.047,0.453 0.445,0 0.797,-0.148 1.047,-0.453 0.257,-0.301 0.39,-0.719 0.39,-1.25 0,-0.519 -0.133,-0.929 -0.39,-1.234 -0.25,-0.301 -0.602,-0.453 -1.047,-0.453 z m 1.969,-3.094 v 0.891 c -0.25,-0.114 -0.508,-0.204 -0.766,-0.266 -0.25,-0.063 -0.496,-0.094 -0.734,-0.094 -0.657,0 -1.157,0.219 -1.5,0.656 -0.344,0.438 -0.54,1.106 -0.579,2 0.188,-0.281 0.426,-0.492 0.719,-0.64 0.289,-0.156 0.61,-0.235 0.953,-0.235 0.727,0 1.309,0.223 1.735,0.672 0.425,0.438 0.64,1.039 0.64,1.797 0,0.75 -0.226,1.356 -0.672,1.813 -0.437,0.449 -1.027,0.672 -1.765,0.672 -0.844,0 -1.492,-0.321 -1.938,-0.969 -0.437,-0.645 -0.656,-1.582 -0.656,-2.813 0,-1.144 0.27,-2.062 0.813,-2.75 0.55,-0.687 1.285,-1.031 2.203,-1.031 0.25,0 0.5,0.027 0.75,0.078 0.25,0.043 0.515,0.117 0.797,0.219 z m 6.718,4.172 v 0.437 h -4.136 c 0.039,0.617 0.226,1.086 0.558,1.407 0.336,0.324 0.801,0.484 1.395,0.484 0.34,0 0.675,-0.039 1,-0.125 0.332,-0.082 0.656,-0.207 0.965,-0.375 v 0.844 c -0.321,0.136 -0.657,0.242 -1,0.312 -0.332,0.074 -0.668,0.11 -1.012,0.11 -0.875,0 -1.57,-0.25 -2.078,-0.75 -0.512,-0.508 -0.77,-1.204 -0.77,-2.079 0,-0.894 0.242,-1.601 0.723,-2.125 0.488,-0.519 1.144,-0.781 1.969,-0.781 0.738,0 1.32,0.235 1.75,0.703 0.425,0.469 0.636,1.118 0.636,1.938 z m -0.902,-0.266 c 0,-0.488 -0.137,-0.879 -0.406,-1.172 -0.274,-0.3 -0.625,-0.453 -1.067,-0.453 -0.508,0 -0.914,0.149 -1.218,0.438 -0.29,0.281 -0.461,0.679 -0.512,1.187 h 3.203" /><g
         transform="scale(1,-1)"
         id="g132"><path
           id="path134"
           style="fill:none;stroke:#000000;stroke-width:1;stroke-linecap:butt;stroke-linejoin:miter;stroke-miterlimit:1.45000005;stroke-dasharray:none;stroke-opacity:1"
           d="m 338,-28 25,12.5 25,-12.5 -25,-12.5 z" /></g><path
         id="path136"
         style="fill:#000000;fill-opacity:1;fill-rule:nonzero;stroke:none"
         d="m 496.656,24.164 h 6.172 v 0.844 h -2.594 v 6.453 h -0.984 v -6.453 h -2.594 z m 12.094,6.25 v -1.953 h -1.609 v -0.813 h 2.578 v 3.141 c -0.375,0.262 -0.789,0.465 -1.25,0.609 -0.457,0.137 -0.949,0.204 -1.469,0.204 -1.145,0 -2.039,-0.332 -2.688,-1 -0.632,-0.664 -0.953,-1.594 -0.953,-2.782 0,-1.187 0.321,-2.113 0.953,-2.781 0.649,-0.668 1.543,-1 2.688,-1 0.469,0 0.918,0.059 1.344,0.172 0.437,0.117 0.836,0.285 1.187,0.516 v 1.062 c -0.363,-0.312 -0.75,-0.547 -1.156,-0.703 -0.406,-0.156 -0.84,-0.234 -1.297,-0.234 -0.894,0 -1.566,0.25 -2.016,0.75 -0.437,0.492 -0.656,1.23 -0.656,2.218 0,0.992 0.219,1.735 0.656,2.235 0.45,0.492 1.122,0.734 2.016,0.734 0.356,0 0.668,-0.023 0.938,-0.078 0.269,-0.063 0.515,-0.16 0.734,-0.297 z m 2.781,-6.25 h 4.188 v 0.844 h -3.203 v 2.14 h 2.89 v 0.829 h -2.89 v 3.484 h -0.985 z m 6.735,3.813 v 2.671 h 1.578 c 0.531,0 0.922,-0.109 1.172,-0.328 0.261,-0.218 0.39,-0.554 0.39,-1.015 0,-0.446 -0.129,-0.782 -0.39,-1 -0.25,-0.219 -0.641,-0.328 -1.172,-0.328 z m 0,-3 v 2.203 h 1.453 c 0.492,0 0.851,-0.086 1.078,-0.266 0.242,-0.187 0.359,-0.461 0.359,-0.828 0,-0.375 -0.117,-0.648 -0.359,-0.828 -0.227,-0.188 -0.586,-0.281 -1.078,-0.281 z m -0.985,-0.813 h 2.516 c 0.75,0 1.328,0.156 1.734,0.469 0.407,0.312 0.61,0.762 0.61,1.344 0,0.449 -0.102,0.804 -0.313,1.062 -0.207,0.262 -0.508,0.422 -0.906,0.484 0.48,0.106 0.855,0.325 1.125,0.657 0.273,0.336 0.406,0.746 0.406,1.234 0,0.656 -0.223,1.164 -0.672,1.516 -0.437,0.355 -1.066,0.531 -1.89,0.531 h -2.61 z m 11.504,4.344 v 0.437 h -4.14 c 0.039,0.617 0.226,1.086 0.562,1.407 0.332,0.324 0.797,0.484 1.391,0.484 0.343,0 0.675,-0.039 1,-0.125 0.332,-0.082 0.656,-0.207 0.968,-0.375 v 0.844 c -0.324,0.136 -0.656,0.242 -1,0.312 -0.336,0.074 -0.671,0.11 -1.015,0.11 -0.875,0 -1.571,-0.25 -2.078,-0.75 -0.512,-0.508 -0.766,-1.204 -0.766,-2.079 0,-0.894 0.238,-1.601 0.719,-2.125 0.488,-0.519 1.144,-0.781 1.969,-0.781 0.738,0 1.32,0.235 1.75,0.703 0.425,0.469 0.64,1.118 0.64,1.938 z m -0.906,-0.266 c 0,-0.488 -0.137,-0.879 -0.406,-1.172 -0.274,-0.3 -0.625,-0.453 -1.063,-0.453 -0.512,0 -0.918,0.149 -1.219,0.438 -0.293,0.281 -0.464,0.679 -0.515,1.187 h 3.203" /><g
         transform="scale(1,-1)"
         id="g138"><path
           id="path140"
           style="fill:none;stroke:#000000;stroke-width:1;stroke-linecap:butt;stroke-linejoin:miter;stroke-miterlimit:1.45000005;stroke-dasharray:none;stroke-opacity:1"
           d="m 488,-28 25,12.5 25,-12.5 -25,-12.5 z" /></g><path
         id="path142"
         style="fill:#000000;fill-opacity:1;fill-rule:nonzero;stroke:none"
         d="m 425.285,24.164 h 0.985 v 7.297 h -0.985 z m 2.949,0 h 0.985 v 6.469 h 3.547 v 0.828 h -4.532 z m 5.821,6.469 h 1.625 V 25.07 l -1.766,0.344 v -0.891 l 1.75,-0.359 h 0.984 v 6.469 h 1.61 v 0.828 h -4.203 z m 8.3,-5.813 c -0.5,0 -0.878,0.25 -1.14,0.75 -0.25,0.5 -0.375,1.25 -0.375,2.25 0,1 0.125,1.75 0.375,2.25 0.262,0.5 0.64,0.75 1.14,0.75 0.524,0 0.907,-0.25 1.157,-0.75 0.261,-0.5 0.39,-1.25 0.39,-2.25 0,-1 -0.129,-1.75 -0.39,-2.25 -0.25,-0.5 -0.633,-0.75 -1.157,-0.75 z m 0,-0.781 c 0.825,0 1.45,0.324 1.875,0.969 0.438,0.648 0.657,1.586 0.657,2.812 0,1.231 -0.219,2.168 -0.657,2.813 -0.425,0.648 -1.05,0.969 -1.875,0.969 -0.812,0 -1.437,-0.321 -1.875,-0.969 -0.425,-0.645 -0.64,-1.582 -0.64,-2.813 0,-1.226 0.215,-2.164 0.64,-2.812 0.438,-0.645 1.063,-0.969 1.875,-0.969 z m 8.817,4.469 v 0.437 h -4.141 c 0.039,0.617 0.231,1.086 0.563,1.407 0.332,0.324 0.797,0.484 1.39,0.484 0.344,0 0.676,-0.039 1,-0.125 0.332,-0.082 0.657,-0.207 0.969,-0.375 v 0.844 c -0.324,0.136 -0.656,0.242 -1,0.312 -0.336,0.074 -0.672,0.11 -1.015,0.11 -0.876,0 -1.571,-0.25 -2.079,-0.75 -0.511,-0.508 -0.765,-1.204 -0.765,-2.079 0,-0.894 0.238,-1.601 0.718,-2.125 0.489,-0.519 1.145,-0.781 1.969,-0.781 0.739,0 1.324,0.235 1.75,0.703 0.426,0.469 0.641,1.118 0.641,1.938 z m -0.906,-0.266 c 0,-0.488 -0.137,-0.879 -0.407,-1.172 -0.269,-0.3 -0.625,-0.453 -1.062,-0.453 -0.512,0 -0.918,0.149 -1.219,0.438 -0.293,0.281 -0.465,0.679 -0.516,1.187 h 3.204" /><g
         transform="scale(1,-1)"
         id="g144"><path
           id="path146"
           style="fill:none;stroke:#000000;stroke-width:1;stroke-linecap:butt;stroke-linejoin:miter;stroke-miterlimit:1.45000005;stroke-dasharray:none;stroke-opacity:1"
           d="m 413,-28 25,12.5 25,-12.5 -25,-12.5 z" /></g><path
         id="path148"
         style="fill:#000000;fill-opacity:1;fill-rule:nonzero;stroke:none"
         d="m 277.949,324.164 h 6.172 v 0.844 h -2.594 v 6.453 h -0.984 v -6.453 h -2.594 z m 12.578,0.563 v 1.046 c -0.336,-0.312 -0.687,-0.539 -1.062,-0.687 -0.375,-0.156 -0.774,-0.234 -1.188,-0.234 -0.836,0 -1.476,0.257 -1.922,0.765 -0.437,0.512 -0.656,1.246 -0.656,2.203 0,0.961 0.219,1.696 0.656,2.203 0.446,0.512 1.086,0.766 1.922,0.766 0.414,0 0.813,-0.07 1.188,-0.219 0.375,-0.156 0.726,-0.39 1.062,-0.703 v 1.031 c -0.343,0.243 -0.711,0.418 -1.093,0.532 -0.387,0.113 -0.793,0.172 -1.219,0.172 -1.106,0 -1.977,-0.336 -2.61,-1.016 -0.636,-0.676 -0.953,-1.598 -0.953,-2.766 0,-1.164 0.317,-2.086 0.953,-2.765 0.633,-0.676 1.504,-1.016 2.61,-1.016 0.437,0 0.847,0.059 1.234,0.172 0.387,0.113 0.742,0.285 1.078,0.516 z m 4.981,3.312 c 0.211,0.074 0.414,0.231 0.609,0.469 0.207,0.23 0.414,0.547 0.61,0.953 l 1,2 h -1.063 l -0.922,-1.875 c -0.238,-0.488 -0.472,-0.813 -0.703,-0.969 -0.227,-0.156 -0.535,-0.234 -0.922,-0.234 h -1.078 v 3.078 h -0.984 v -7.297 h 2.218 c 0.836,0 1.454,0.18 1.86,0.531 0.418,0.344 0.625,0.871 0.625,1.578 0,0.461 -0.11,0.84 -0.328,1.141 -0.207,0.305 -0.516,0.512 -0.922,0.625 z m -2.469,-3.062 v 2.593 h 1.234 c 0.481,0 0.84,-0.109 1.079,-0.328 0.25,-0.219 0.375,-0.543 0.375,-0.969 0,-0.425 -0.125,-0.75 -0.375,-0.968 -0.239,-0.219 -0.598,-0.328 -1.079,-0.328 h -1.234" /><g
         transform="scale(1,-1)"
         id="g150"><path
           id="path152"
           style="fill:none;stroke:#000000;stroke-width:1;stroke-linecap:butt;stroke-linejoin:miter;stroke-miterlimit:1.45000005;stroke-dasharray:none;stroke-opacity:1"
           d="m 263,-328 25,12.5 25,-12.5 -25,-12.5 z" /></g><g
         transform="scale(1,-1)"
         id="g154"><path
           id="path156"
           style="fill:none;stroke:#000000;stroke-width:1;stroke-linecap:butt;stroke-linejoin:miter;stroke-miterlimit:1.45000005;stroke-dasharray:none;stroke-opacity:1"
           d="M 78,-240.469 V -232 l 3.57,3.57 h 15.86 l 7.64,-7.64 v -14.86 l -4.57,-4.57 H 92" /></g><path
         id="path158"
         style="fill:#000000;fill-opacity:1;fill-rule:nonzero;stroke:none"
         d="m 88,255.5 8,6 -3,-6 3,-6 z" /><g
         transform="scale(1,-1)"
         id="g160"><path
           id="path162"
           style="fill:none;stroke:#000000;stroke-width:1;stroke-linecap:butt;stroke-linejoin:miter;stroke-miterlimit:1.45000005;stroke-dasharray:none;stroke-opacity:1"
           d="M 86.594,-108 H 97 l 3.07,-3.07 v -27.86 l -6.57,-6.57 h -9 L 78,-139 v 19.984" /></g><path
         id="path164"
         style="fill:#000000;fill-opacity:1;fill-rule:nonzero;stroke:none"
         d="m 78,115.016 -6,8 6,-3 6,3 z" /><g
         transform="scale(1,-1)"
         id="g166"><path
           id="path168"
           style="fill:none;stroke:#000000;stroke-width:1;stroke-linecap:butt;stroke-linejoin:miter;stroke-miterlimit:1.45000005;stroke-dasharray:none;stroke-opacity:1"
           d="M 48,-119 V -236.469" /></g><path
         id="path170"
         style="fill:#000000;fill-opacity:1;fill-rule:nonzero;stroke:none"
         d="m 48,115 -6,8 6,-3 6,3 z" /><path
         id="path172"
         style="fill:#000000;fill-opacity:1;fill-rule:nonzero;stroke:none"
         d="m 48,240.469 6,-8 -6,3 -6,-3 z" /><g
         transform="scale(1,-1)"
         id="g174"><path
           id="path176"
           style="fill:none;stroke:#993300;stroke-width:1;stroke-linecap:butt;stroke-linejoin:miter;stroke-miterlimit:1.45000005;stroke-dasharray:none;stroke-opacity:1"
           d="m 92,-250.5 h 91.949" /></g><path
         id="path178"
         style="fill:#993300;fill-opacity:1;fill-rule:nonzero;stroke:none"
         d="m 84,250.5 c 0,-2.211 1.789,-4 4,-4 2.211,0 4,1.789 4,4 0,2.211 -1.789,4 -4,4 -2.211,0 -4,-1.789 -4,-4" /><path
         id="path180"
         style="fill:#993300;fill-opacity:1;fill-rule:nonzero;stroke:none"
         d="m 191.949,250.5 c 0,2.211 -1.789,4 -4,4 -2.207,0 -4,-1.789 -4,-4 0,-2.211 1.793,-4 4,-4 2.211,0 4,1.789 4,4" /><g
         transform="scale(1,-1)"
         id="g182"><path
           id="path184"
           style="fill:none;stroke:#993300;stroke-width:1;stroke-linecap:butt;stroke-linejoin:miter;stroke-miterlimit:1.45000005;stroke-dasharray:none;stroke-opacity:1"
           d="M 58,-121.719 V -218 l 3.863,-3.863 h 131 L 198,-227 v -9.473" /></g><path
         id="path186"
         style="fill:#993300;fill-opacity:1;fill-rule:nonzero;stroke:none"
         d="m 58,113.719 c 2.211,0 4,1.793 4,4 0,2.211 -1.789,4 -4,4 -2.211,0 -4,-1.789 -4,-4 0,-2.207 1.789,-4 4,-4" /><path
         id="path188"
         style="fill:#993300;fill-opacity:1;fill-rule:nonzero;stroke:none"
         d="m 198,244.473 c -2.211,0 -4,-1.789 -4,-4 0,-2.207 1.789,-4 4,-4 2.211,0 4,1.793 4,4 0,2.211 -1.789,4 -4,4" /><g
         transform="scale(1,-1)"
         id="g190"><path
           id="path192"
           style="fill:none;stroke:#000000;stroke-width:1;stroke-linecap:butt;stroke-linejoin:miter;stroke-miterlimit:1.45000005;stroke-dasharray:none;stroke-opacity:1"
           d="m 205.5,-265.5 v -9 l -3.07,-3.07 h -20.86 l -5.64,5.64 v 12.86 l 3.57,3.57 h 4.469" /></g><path
         id="path194"
         style="fill:#000000;fill-opacity:1;fill-rule:nonzero;stroke:none"
         d="m 187.969,255.5 -8,-6 3,6 -3,6 z" /><g
         transform="scale(1,-1)"
         id="g196"><path
           id="path198"
           style="fill:none;stroke:#000000;stroke-width:1;stroke-linecap:butt;stroke-linejoin:miter;stroke-miterlimit:1.45000005;stroke-dasharray:none;stroke-opacity:1"
           d="M 198,-115.008 V -134 l -6.5,-6.5 h -9 l -6.57,6.57 v 22.86 L 179,-108 h 6.406" /></g><path
         id="path200"
         style="fill:#000000;fill-opacity:1;fill-rule:nonzero;stroke:none"
         d="m 189.406,108 -8,-6 3,6 -3,6 z" /><g
         transform="scale(1,-1)"
         id="g202"><path
           id="path204"
           style="fill:none;stroke:#993300;stroke-width:1;stroke-linecap:butt;stroke-linejoin:miter;stroke-miterlimit:1.45000005;stroke-dasharray:none;stroke-opacity:1"
           d="M 203,-120.758 V -197 l -8.5,-8.5 H 76.5 L 68,-214 v -22.473" /></g><path
         id="path206"
         style="fill:#993300;fill-opacity:1;fill-rule:nonzero;stroke:none"
         d="m 203,112.758 c 2.211,0 4,1.793 4,4 0,2.211 -1.789,4 -4,4 -2.211,0 -4,-1.789 -4,-4 0,-2.207 1.789,-4 4,-4" /><path
         id="path208"
         style="fill:#993300;fill-opacity:1;fill-rule:nonzero;stroke:none"
         d="m 68,244.473 c -2.211,0 -4,-1.789 -4,-4 0,-2.207 1.789,-4 4,-4 2.211,0 4,1.793 4,4 0,2.211 -1.789,4 -4,4" /><g
         transform="scale(1,-1)"
         id="g210"><path
           id="path212"
           style="fill:none;stroke:#000000;stroke-width:1;stroke-linecap:butt;stroke-linejoin:miter;stroke-miterlimit:1.45000005;stroke-dasharray:none;stroke-opacity:1"
           d="m 208,-121.719 v -114.75" /></g><path
         id="path214"
         style="fill:#000000;fill-opacity:1;fill-rule:nonzero;stroke:none"
         d="m 208,117.719 -6,8 6,-3 6,3 z" /><path
         id="path216"
         style="fill:#000000;fill-opacity:1;fill-rule:nonzero;stroke:none"
         d="m 208,240.469 6,-8 -6,3 -6,-3 z" /><g
         transform="scale(1,-1)"
         id="g218"><path
           id="path220"
           style="fill:none;stroke:#000000;stroke-width:1;stroke-linecap:butt;stroke-linejoin:miter;stroke-miterlimit:1.45000005;stroke-dasharray:none;stroke-opacity:1"
           d="m 348,-115 v -16 l -4.5,-4.5 h -15 l -8,8 v 15 l 4.5,4.5 h 10.406" /></g><path
         id="path222"
         style="fill:#000000;fill-opacity:1;fill-rule:nonzero;stroke:none"
         d="m 339.406,108 -8,-6 3,6 -3,6 z" /><g
         transform="scale(1,-1)"
         id="g224"><path
           id="path226"
           style="fill:none;stroke:#993300;stroke-width:1;stroke-linecap:butt;stroke-linejoin:miter;stroke-miterlimit:1.45000005;stroke-dasharray:none;stroke-opacity:1"
           d="m 366.75,-88 v 21.25 l -8.43,8.43 H 29.68 l -8.75,-8.75 v -178.86 l 4.57,-4.57 h 8.453" /></g><path
         id="path228"
         style="fill:#993300;fill-opacity:1;fill-rule:nonzero;stroke:none"
         d="m 41.953,250.5 c 0,2.211 -1.793,4 -4,4 -2.211,0 -4,-1.789 -4,-4 0,-2.211 1.789,-4 4,-4 2.207,0 4,1.789 4,4" /><g
         transform="scale(1,-1)"
         id="g230"><path
           id="path232"
           style="fill:none;stroke:#993300;stroke-width:1;stroke-linecap:butt;stroke-linejoin:miter;stroke-miterlimit:1.45000005;stroke-dasharray:none;stroke-opacity:1"
           d="M 353,-116.758 V -192 l -8.5,-8.5 h -108 L 228,-209 v -27.469" /></g><path
         id="path234"
         style="fill:#993300;fill-opacity:1;fill-rule:nonzero;stroke:none"
         d="m 228,244.469 c -2.211,0 -4,-1.789 -4,-4 0,-2.207 1.789,-4 4,-4 2.211,0 4,1.793 4,4 0,2.211 -1.789,4 -4,4" /><g
         transform="scale(1,-1)"
         id="g236"><path
           id="path238"
           style="fill:none;stroke:#000000;stroke-width:1;stroke-linecap:butt;stroke-linejoin:miter;stroke-miterlimit:1.45000005;stroke-dasharray:none;stroke-opacity:1"
           d="M 73,-89.242 V -70 l 6.68,6.68 H 421.32 L 428,-70 v -15.242" /></g><path
         id="path240"
         style="fill:#000000;fill-opacity:1;fill-rule:nonzero;stroke:none"
         d="m 428,89.242 6,-8 -6,3 -6,-3 z" /><g
         transform="scale(1,-1)"
         id="g242"><path
           id="path244"
           style="fill:none;stroke:#000000;stroke-width:1;stroke-linecap:butt;stroke-linejoin:miter;stroke-miterlimit:1.45000005;stroke-dasharray:none;stroke-opacity:1"
           d="M 223,-240.461 V -159 l 8.5,8.5 h 186 l 8.5,8.5 v 21.82" /></g><path
         id="path246"
         style="fill:#000000;fill-opacity:1;fill-rule:nonzero;stroke:none"
         d="m 426,116.18 -6,8 6,-3 6,3 z" /><g
         transform="scale(1,-1)"
         id="g248"><path
           id="path250"
           style="fill:none;stroke:#000000;stroke-width:1;stroke-linecap:butt;stroke-linejoin:miter;stroke-miterlimit:1.45000005;stroke-dasharray:none;stroke-opacity:1"
           d="m 386.594,-98 h 23.812" /></g><path
         id="path252"
         style="fill:#000000;fill-opacity:1;fill-rule:nonzero;stroke:none"
         d="m 414.406,98 -8,-6 3,6 -3,6 z" /><g
         transform="scale(1,-1)"
         id="g254"><path
           id="path256"
           style="fill:none;stroke:#000000;stroke-width:1;stroke-linecap:butt;stroke-linejoin:miter;stroke-miterlimit:1.45000005;stroke-dasharray:none;stroke-opacity:1"
           d="M 450,-116.184 V -131 l 4.5,-4.5 h 15 l 7.25,7.25 v 16.5 L 473,-108 h -7.406" /></g><path
         id="path258"
         style="fill:#000000;fill-opacity:1;fill-rule:nonzero;stroke:none"
         d="m 461.594,108 8,6 -3,-6 3,-6 z" /><g
         transform="scale(1,-1)"
         id="g260"><path
           id="path262"
           style="fill:none;stroke:#993300;stroke-width:1;stroke-linecap:butt;stroke-linejoin:miter;stroke-miterlimit:1.45000005;stroke-dasharray:none;stroke-opacity:1"
           d="m 438,-88 v 26 l -8.68,8.68 H 24.68 l -8.75,-8.75 v -186.86 l 6.57,-6.57 h 11.469" /></g><path
         id="path264"
         style="fill:#993300;fill-opacity:1;fill-rule:nonzero;stroke:none"
         d="m 41.969,255.5 c 0,2.211 -1.789,4 -4,4 -2.207,0 -4,-1.789 -4,-4 0,-2.211 1.793,-4 4,-4 2.211,0 4,1.789 4,4" /><g
         transform="scale(1,-1)"
         id="g266"><path
           id="path268"
           style="fill:none;stroke:#000000;stroke-width:1;stroke-linecap:butt;stroke-linejoin:miter;stroke-miterlimit:1.45000005;stroke-dasharray:none;stroke-opacity:1"
           d="m 34,-103 h -5 l -3.07,-3.07 v -38.86 L 34,-153 h 395 l 3,-3 v -5.465" /></g><path
         id="path270"
         style="fill:#000000;fill-opacity:1;fill-rule:nonzero;stroke:none"
         d="m 42,103 c 0,2.211 -1.789,4 -4,4 -2.211,0 -4,-1.789 -4,-4 0,-2.211 1.789,-4 4,-4 2.211,0 4,1.789 4,4" /><path
         id="path272"
         style="fill:#000000;fill-opacity:1;fill-rule:nonzero;stroke:none"
         d="m 432,165.465 6,-8 -6,3 -6,-3 z" /><g
         transform="scale(1,-1)"
         id="g274"><path
           id="path276"
           style="fill:none;stroke:#000000;stroke-width:1;stroke-linecap:butt;stroke-linejoin:miter;stroke-miterlimit:1.45000005;stroke-dasharray:none;stroke-opacity:1"
           d="M 228,-115.016 V -138 l 7.5,-7.5 h 197 l 5.5,-5.5 v -10.473" /></g><path
         id="path278"
         style="fill:#000000;fill-opacity:1;fill-rule:nonzero;stroke:none"
         d="m 438,165.473 6,-8 -6,3 -6,-3 z" /><g
         transform="scale(1,-1)"
         id="g280"><path
           id="path282"
           style="fill:none;stroke:#000000;stroke-width:1;stroke-linecap:butt;stroke-linejoin:miter;stroke-miterlimit:1.45000005;stroke-dasharray:none;stroke-opacity:1"
           d="m 444,-117.578 v -43.875" /></g><path
         id="path284"
         style="fill:#000000;fill-opacity:1;fill-rule:nonzero;stroke:none"
         d="m 444,165.453 6,-8 -6,3 -6,-3 z" /><g
         transform="scale(1,-1)"
         id="g286"><path
           id="path288"
           style="fill:none;stroke:#993300;stroke-width:1;stroke-linecap:butt;stroke-linejoin:miter;stroke-miterlimit:1.45000005;stroke-dasharray:none;stroke-opacity:1"
           d="m 445.5,-190.5 v -89 l -8.07,-8.07 H 69.57 L 63,-281 v 11.5" /></g><path
         id="path290"
         style="fill:#993300;fill-opacity:1;fill-rule:nonzero;stroke:none"
         d="m 63,261.5 c 2.211,0 4,1.789 4,4 0,2.211 -1.789,4 -4,4 -2.211,0 -4,-1.789 -4,-4 0,-2.211 1.789,-4 4,-4" /><g
         transform="scale(1,-1)"
         id="g292"><path
           id="path294"
           style="fill:none;stroke:#993300;stroke-width:1;stroke-linecap:butt;stroke-linejoin:miter;stroke-miterlimit:1.45000005;stroke-dasharray:none;stroke-opacity:1"
           d="M 413.969,-175.5 H 386.5 l -8.5,8.5 v 48.008" /></g><path
         id="path296"
         style="fill:#993300;fill-opacity:1;fill-rule:nonzero;stroke:none"
         d="m 378,110.992 c 2.211,0 4,1.793 4,4 0,2.211 -1.789,4 -4,4 -2.211,0 -4,-1.789 -4,-4 0,-2.207 1.789,-4 4,-4" /><g
         transform="scale(1,-1)"
         id="g298"><path
           id="path300"
           style="fill:none;stroke:#000000;stroke-width:1;stroke-linecap:butt;stroke-linejoin:miter;stroke-miterlimit:1.45000005;stroke-dasharray:none;stroke-opacity:1"
           d="M 123,-33.031 V -142 l -8.5,-8.5 h -43 L 63,-159 v -77.461" /></g><path
         id="path302"
         style="fill:#000000;fill-opacity:1;fill-rule:nonzero;stroke:none"
         d="m 63,240.461 6,-8 -6,3 -6,-3 z" /><g
         transform="scale(1,-1)"
         id="g304"><path
           id="path306"
           style="fill:none;stroke:#993300;stroke-width:1;stroke-linecap:butt;stroke-linejoin:miter;stroke-miterlimit:1.45000005;stroke-dasharray:none;stroke-opacity:1"
           d="M 148,-35.496 V -90 l 8,-8 h 29.406" /></g><path
         id="path308"
         style="fill:#993300;fill-opacity:1;fill-rule:nonzero;stroke:none"
         d="m 193.406,98 c 0,2.211 -1.793,4 -4,4 -2.211,0 -4,-1.789 -4,-4 0,-2.211 1.789,-4 4,-4 2.207,0 4,1.789 4,4" /><g
         transform="scale(1,-1)"
         id="g310"><path
           id="path312"
           style="fill:none;stroke:#993300;stroke-width:1;stroke-linecap:butt;stroke-linejoin:miter;stroke-miterlimit:1.45000005;stroke-dasharray:none;stroke-opacity:1"
           d="M 378,-115.008 V -134 l 6.5,-6.5 h 120 l 6,6 v 12.5" /></g><path
         id="path314"
         style="fill:#993300;fill-opacity:1;fill-rule:nonzero;stroke:none"
         d="m 510.5,114 c 2.211,0 4,1.789 4,4 0,2.211 -1.789,4 -4,4 -2.211,0 -4,-1.789 -4,-4 0,-2.211 1.789,-4 4,-4" /><g
         transform="scale(1,-1)"
         id="g316"><path
           id="path318"
           style="fill:none;stroke:#000000;stroke-width:1;stroke-linecap:butt;stroke-linejoin:miter;stroke-miterlimit:1.45000005;stroke-dasharray:none;stroke-opacity:1"
           d="m 538,-103 h 9 l 3.07,-3.07 v -27.86 l -6.57,-6.57 h -11 l -7,7 v 13.496" /></g><path
         id="path320"
         style="fill:#000000;fill-opacity:1;fill-rule:nonzero;stroke:none"
         d="m 525.5,116.004 -6,8 6,-3 6,3 z" /><g
         transform="scale(1,-1)"
         id="g322"><path
           id="path324"
           style="fill:none;stroke:#993300;stroke-width:1;stroke-linecap:butt;stroke-linejoin:miter;stroke-miterlimit:1.45000005;stroke-dasharray:none;stroke-opacity:1"
           d="M 505.5,-88.688 V -56.5 l -8.18,8.18 H 71.68 L 63,-57 v -27" /></g><path
         id="path326"
         style="fill:#993300;fill-opacity:1;fill-rule:nonzero;stroke:none"
         d="m 63,92 c -2.211,0 -4,-1.789 -4,-4 0,-2.211 1.789,-4 4,-4 2.211,0 4,1.789 4,4 0,2.211 -1.789,4 -4,4" /><g
         transform="scale(1,-1)"
         id="g328"><path
           id="path330"
           style="fill:none;stroke:#993300;stroke-width:1;stroke-linecap:butt;stroke-linejoin:miter;stroke-miterlimit:1.45000005;stroke-dasharray:none;stroke-opacity:1"
           d="m 488,-103 h -12 l -4.25,-4.25 v -177 l -8.32,-8.32 H 228.57 l -8.07,8.07 v 15" /></g><path
         id="path332"
         style="fill:#993300;fill-opacity:1;fill-rule:nonzero;stroke:none"
         d="m 220.5,261.5 c 2.211,0 4,1.789 4,4 0,2.211 -1.789,4 -4,4 -2.211,0 -4,-1.789 -4,-4 0,-2.211 1.789,-4 4,-4" /><g
         transform="scale(1,-1)"
         id="g334"><path
           id="path336"
           style="fill:none;stroke:#000000;stroke-width:1;stroke-linecap:butt;stroke-linejoin:miter;stroke-miterlimit:1.45000005;stroke-dasharray:none;stroke-opacity:1"
           d="M 489.406,-98 H 465.594" /></g><path
         id="path338"
         style="fill:#000000;fill-opacity:1;fill-rule:nonzero;stroke:none"
         d="m 461.594,98 8,6 -3,-6 3,-6 z" /><g
         transform="scale(1,-1)"
         id="g340"><path
           id="path342"
           style="fill:none;stroke:#000000;stroke-width:1;stroke-linecap:butt;stroke-linejoin:miter;stroke-miterlimit:1.45000005;stroke-dasharray:none;stroke-opacity:1"
           d="M 68,-121.719 V -167 l 8.5,-8.5 h 33.469" /></g><path
         id="path344"
         style="fill:#000000;fill-opacity:1;fill-rule:nonzero;stroke:none"
         d="m 68,113.719 c 2.211,0 4,1.793 4,4 0,2.211 -1.789,4 -4,4 -2.211,0 -4,-1.789 -4,-4 0,-2.207 1.789,-4 4,-4" /><path
         id="path346"
         style="fill:#000000;fill-opacity:1;fill-rule:nonzero;stroke:none"
         d="m 113.969,175.5 -8,-6 3,6 -3,6 z" /><g
         transform="scale(1,-1)"
         id="g348"><path
           id="path350"
           style="fill:none;stroke:#000000;stroke-width:1;stroke-linecap:butt;stroke-linejoin:miter;stroke-miterlimit:1.45000005;stroke-dasharray:none;stroke-opacity:1"
           d="M 351.75,-89.594 V -75.93 H 146.07 L 138,-84 v -77.461" /></g><path
         id="path352"
         style="fill:#000000;fill-opacity:1;fill-rule:nonzero;stroke:none"
         d="m 138,165.461 6,-8 -6,3 -6,-3 z" /><g
         transform="scale(1,-1)"
         id="g354"><path
           id="path356"
           style="fill:none;stroke:#993300;stroke-width:1;stroke-linecap:butt;stroke-linejoin:miter;stroke-miterlimit:1.45000005;stroke-dasharray:none;stroke-opacity:1"
           d="M 153,-165.473 V -111 l 8,8 h 23" /></g><path
         id="path358"
         style="fill:#993300;fill-opacity:1;fill-rule:nonzero;stroke:none"
         d="m 192,103 c 0,2.211 -1.789,4 -4,4 -2.211,0 -4,-1.789 -4,-4 0,-2.211 1.789,-4 4,-4 2.211,0 4,1.789 4,4" /><g
         transform="scale(1,-1)"
         id="g360"><path
           id="path362"
           style="fill:none;stroke:#000000;stroke-width:1;stroke-linecap:butt;stroke-linejoin:miter;stroke-miterlimit:1.45000005;stroke-dasharray:none;stroke-opacity:1"
           d="M 53,-35.531 V -85.254" /></g><path
         id="path364"
         style="fill:#000000;fill-opacity:1;fill-rule:nonzero;stroke:none"
         d="m 53,89.254 6,-8 -6,3 -6,-3 z" /><g
         transform="scale(1,-1)"
         id="g366"><path
           id="path368"
           style="fill:none;stroke:#000000;stroke-width:1;stroke-linecap:butt;stroke-linejoin:miter;stroke-miterlimit:1.45000005;stroke-dasharray:none;stroke-opacity:1"
           d="M 275.5,-116.004 V -134.5 l -6,-6 h -12 l -6.57,6.57 v 22.86 L 254,-108 h 6.406" /></g><path
         id="path370"
         style="fill:#000000;fill-opacity:1;fill-rule:nonzero;stroke:none"
         d="m 264.406,108 -8,-6 3,6 -3,6 z" /><g
         transform="scale(1,-1)"
         id="g372"><path
           id="path374"
           style="fill:none;stroke:#000000;stroke-width:1;stroke-linecap:butt;stroke-linejoin:miter;stroke-miterlimit:1.45000005;stroke-dasharray:none;stroke-opacity:1"
           d="m 280.5,-117.32 v -20.18 l -8,-8 h -46 L 218,-154 v -82.457" /></g><path
         id="path376"
         style="fill:#000000;fill-opacity:1;fill-rule:nonzero;stroke:none"
         d="m 218,240.457 6,-8 -6,3 -6,-3 z" /><g
         transform="scale(1,-1)"
         id="g378"><path
           id="path380"
           style="fill:none;stroke:#000000;stroke-width:1;stroke-linecap:butt;stroke-linejoin:miter;stroke-miterlimit:1.45000005;stroke-dasharray:none;stroke-opacity:1"
           d="M 264.406,-98 H 240.594" /></g><path
         id="path382"
         style="fill:#000000;fill-opacity:1;fill-rule:nonzero;stroke:none"
         d="m 236.594,98 8,6 -3,-6 3,-6 z" /><g
         transform="scale(1,-1)"
         id="g384"><path
           id="path386"
           style="fill:none;stroke:#993300;stroke-width:1;stroke-linecap:butt;stroke-linejoin:miter;stroke-miterlimit:1.45000005;stroke-dasharray:none;stroke-opacity:1"
           d="m 311.594,-98 h 23.812" /></g><path
         id="path388"
         style="fill:#993300;fill-opacity:1;fill-rule:nonzero;stroke:none"
         d="m 343.406,98 c 0,2.211 -1.793,4 -4,4 -2.211,0 -4,-1.789 -4,-4 0,-2.211 1.789,-4 4,-4 2.207,0 4,1.789 4,4" /><g
         transform="scale(1,-1)"
         id="g390"><path
           id="path392"
           style="fill:none;stroke:#000000;stroke-width:1;stroke-linecap:butt;stroke-linejoin:miter;stroke-miterlimit:1.45000005;stroke-dasharray:none;stroke-opacity:1"
           d="m 259,-103 h -9 l -5.02,-5.02 v -61 L 236,-178 h -69" /></g><path
         id="path394"
         style="fill:#000000;fill-opacity:1;fill-rule:nonzero;stroke:none"
         d="m 267,103 c 0,2.211 -1.789,4 -4,4 -2.211,0 -4,-1.789 -4,-4 0,-2.211 1.789,-4 4,-4 2.211,0 4,1.789 4,4" /><path
         id="path396"
         style="fill:#000000;fill-opacity:1;fill-rule:nonzero;stroke:none"
         d="m 163,178 8,6 -3,-6 3,-6 z" /><g
         transform="scale(1,-1)"
         id="g398"><path
           id="path400"
           style="fill:none;stroke:#000000;stroke-width:1;stroke-linecap:butt;stroke-linejoin:miter;stroke-miterlimit:1.45000005;stroke-dasharray:none;stroke-opacity:1"
           d="m 300.5,-116 v -31.5 l 8,-8 h 189 l 8,-8 v -72.961" /></g><path
         id="path402"
         style="fill:#000000;fill-opacity:1;fill-rule:nonzero;stroke:none"
         d="m 505.5,244.461 c -2.211,0 -4,-1.789 -4,-4 0,-2.207 1.789,-4 4,-4 2.211,0 4,1.793 4,4 0,2.211 -1.789,4 -4,4" /><g
         transform="scale(1,-1)"
         id="g404"><path
           id="path406"
           style="fill:none;stroke:#993300;stroke-width:1;stroke-linecap:butt;stroke-linejoin:miter;stroke-miterlimit:1.45000005;stroke-dasharray:none;stroke-opacity:1"
           d="M 373,-116.762 V -202 l 8.953,-8.953 h 110 l 8.547,-8.547 v -16.961" /></g><path
         id="path408"
         style="fill:#993300;fill-opacity:1;fill-rule:nonzero;stroke:none"
         d="m 500.5,244.461 c -2.211,0 -4,-1.793 -4,-4 0,-2.211 1.789,-4 4,-4 2.211,0 4,1.789 4,4 0,2.207 -1.789,4 -4,4" /><g
         transform="scale(1,-1)"
         id="g410"><path
           id="path412"
           style="fill:none;stroke:#000000;stroke-width:1;stroke-linecap:butt;stroke-linejoin:miter;stroke-miterlimit:1.45000005;stroke-dasharray:none;stroke-opacity:1"
           d="m 520.5,-265.5 v -9.07 l 8,-8 h 13 l 8.57,8.57 v 17.93 L 547,-253 h -5" /></g><path
         id="path414"
         style="fill:#000000;fill-opacity:1;fill-rule:nonzero;stroke:none"
         d="m 538,253 8,6 -3,-6 3,-6 z" /><g
         transform="scale(1,-1)"
         id="g416"><path
           id="path418"
           style="fill:none;stroke:#000000;stroke-width:1;stroke-linecap:butt;stroke-linejoin:miter;stroke-miterlimit:1.45000005;stroke-dasharray:none;stroke-opacity:1"
           d="M 520.5,-121.312 V -236.469" /></g><path
         id="path420"
         style="fill:#000000;fill-opacity:1;fill-rule:nonzero;stroke:none"
         d="m 520.5,117.312 -6,8 6,-3 6,3 z" /><path
         id="path422"
         style="fill:#000000;fill-opacity:1;fill-rule:nonzero;stroke:none"
         d="m 520.5,240.469 6,-8 -6,3 -6,-3 z" /><g
         transform="scale(1,-1)"
         id="g424"><path
           id="path426"
           style="fill:none;stroke:#000000;stroke-width:1;stroke-linecap:butt;stroke-linejoin:miter;stroke-miterlimit:1.45000005;stroke-dasharray:none;stroke-opacity:1"
           d="M 73,-116.746 V -131 l 4.5,-4.5 h 200 l 8,-8 v -17.957" /></g><path
         id="path428"
         style="fill:#000000;fill-opacity:1;fill-rule:nonzero;stroke:none"
         d="m 285.5,165.457 6,-8 -6,3 -6,-3 z" /><g
         transform="scale(1,-1)"
         id="g430"><path
           id="path432"
           style="fill:none;stroke:#000000;stroke-width:1;stroke-linecap:butt;stroke-linejoin:miter;stroke-miterlimit:1.45000005;stroke-dasharray:none;stroke-opacity:1"
           d="m 290.5,-122 v -39.453" /></g><path
         id="path434"
         style="fill:#000000;fill-opacity:1;fill-rule:nonzero;stroke:none"
         d="m 290.5,114 c 2.211,0 4,1.789 4,4 0,2.211 -1.789,4 -4,4 -2.211,0 -4,-1.789 -4,-4 0,-2.211 1.789,-4 4,-4" /><path
         id="path436"
         style="fill:#000000;fill-opacity:1;fill-rule:nonzero;stroke:none"
         d="m 290.5,165.453 6,-8 -6,3 -6,-3 z" /><g
         transform="scale(1,-1)"
         id="g438"><path
           id="path440"
           style="fill:none;stroke:#000000;stroke-width:1;stroke-linecap:butt;stroke-linejoin:miter;stroke-miterlimit:1.45000005;stroke-dasharray:none;stroke-opacity:1"
           d="m 413,-103 h -13 l -5.02,-5.02 v -64 l -8.48,-8.48 h -70.496" /></g><path
         id="path442"
         style="fill:#000000;fill-opacity:1;fill-rule:nonzero;stroke:none"
         d="m 312.004,180.5 8,6 -3,-6 3,-6 z" /><g
         transform="scale(1,-1)"
         id="g444"><path
           id="path446"
           style="fill:none;stroke:#000000;stroke-width:1;stroke-linecap:butt;stroke-linejoin:miter;stroke-miterlimit:1.45000005;stroke-dasharray:none;stroke-opacity:1"
           d="M 288,-40.5 V -84" /></g><path
         id="path448"
         style="fill:#000000;fill-opacity:1;fill-rule:nonzero;stroke:none"
         d="m 288,88 6,-8 -6,3 -6,-3 z" /><g
         transform="scale(1,-1)"
         id="g450"><path
           id="path452"
           style="fill:none;stroke:#000000;stroke-width:1;stroke-linecap:butt;stroke-linejoin:miter;stroke-miterlimit:1.45000005;stroke-dasharray:none;stroke-opacity:1"
           d="M 213,-40.5 V -84" /></g><path
         id="path454"
         style="fill:#000000;fill-opacity:1;fill-rule:nonzero;stroke:none"
         d="m 213,88 6,-8 -6,3 -6,-3 z" /><g
         transform="scale(1,-1)"
         id="g456"><path
           id="path458"
           style="fill:none;stroke:#993300;stroke-width:1;stroke-linecap:butt;stroke-linejoin:miter;stroke-miterlimit:1.45000005;stroke-dasharray:none;stroke-opacity:1"
           d="M 73,-265.5 V -278 l 4.57,-4.57 H 358.43 L 363,-278 v 8.5" /></g><path
         id="path460"
         style="fill:#993300;fill-opacity:1;fill-rule:nonzero;stroke:none"
         d="m 363,261.5 c 2.211,0 4,1.789 4,4 0,2.211 -1.789,4 -4,4 -2.211,0 -4,-1.789 -4,-4 0,-2.211 1.789,-4 4,-4" /><g
         transform="scale(1,-1)"
         id="g462"><path
           id="path464"
           style="fill:none;stroke:#993300;stroke-width:1;stroke-linecap:butt;stroke-linejoin:miter;stroke-miterlimit:1.45000005;stroke-dasharray:none;stroke-opacity:1"
           d="m 238,-250.5 h 95.949" /></g><path
         id="path466"
         style="fill:#993300;fill-opacity:1;fill-rule:nonzero;stroke:none"
         d="m 341.949,250.5 c 0,2.211 -1.789,4 -4,4 -2.207,0 -4,-1.789 -4,-4 0,-2.211 1.793,-4 4,-4 2.211,0 4,1.789 4,4" /><g
         transform="scale(1,-1)"
         id="g468"><path
           id="path470"
           style="fill:none;stroke:#993300;stroke-width:1;stroke-linecap:butt;stroke-linejoin:miter;stroke-miterlimit:1.45000005;stroke-dasharray:none;stroke-opacity:1"
           d="m 313,-103 h 9 l 3.5,-3.5 v -73 l 8.5,-8.5 h 21 l 8,-8 v -40.457" /></g><path
         id="path472"
         style="fill:#993300;fill-opacity:1;fill-rule:nonzero;stroke:none"
         d="m 363,244.457 c -2.211,0 -4,-1.793 -4,-4 0,-2.211 1.789,-4 4,-4 2.211,0 4,1.789 4,4 0,2.207 -1.789,4 -4,4" /><g
         transform="scale(1,-1)"
         id="g474"><path
           id="path476"
           style="fill:none;stroke:#000000;stroke-width:1;stroke-linecap:butt;stroke-linejoin:miter;stroke-miterlimit:1.45000005;stroke-dasharray:none;stroke-opacity:1"
           d="m 368,-121.719 v -114.75" /></g><path
         id="path478"
         style="fill:#000000;fill-opacity:1;fill-rule:nonzero;stroke:none"
         d="m 368,117.719 -6,8 6,-3 6,3 z" /><path
         id="path480"
         style="fill:#000000;fill-opacity:1;fill-rule:nonzero;stroke:none"
         d="m 368,240.469 6,-8 -6,3 -6,-3 z" /><g
         transform="scale(1,-1)"
         id="g482"><path
           id="path484"
           style="fill:none;stroke:#993300;stroke-width:1;stroke-linecap:butt;stroke-linejoin:miter;stroke-miterlimit:1.45000005;stroke-dasharray:none;stroke-opacity:1"
           d="M 483.949,-255.5 H 392" /></g><path
         id="path486"
         style="fill:#993300;fill-opacity:1;fill-rule:nonzero;stroke:none"
         d="m 491.949,255.5 c 0,2.211 -1.789,4 -4,4 -2.207,0 -4,-1.789 -4,-4 0,-2.211 1.793,-4 4,-4 2.211,0 4,1.789 4,4" /><path
         id="path488"
         style="fill:#993300;fill-opacity:1;fill-rule:nonzero;stroke:none"
         d="m 384,255.5 c 0,-2.211 1.789,-4 4,-4 2.211,0 4,1.789 4,4 0,2.211 -1.789,4 -4,4 -2.211,0 -4,-1.789 -4,-4" /><g
         transform="scale(1,-1)"
         id="g490"><path
           id="path492"
           style="fill:none;stroke:#000000;stroke-width:1;stroke-linecap:butt;stroke-linejoin:miter;stroke-miterlimit:1.45000005;stroke-dasharray:none;stroke-opacity:1"
           d="m 510.5,-118 v -69.5 l -8,-8 h -116 L 378,-204 v -32.465" /></g><path
         id="path494"
         style="fill:#000000;fill-opacity:1;fill-rule:nonzero;stroke:none"
         d="m 378,240.465 6,-8 -6,3 -6,-3 z" /><g
         transform="scale(1,-1)"
         id="g496"><path
           id="path498"
           style="fill:none;stroke:#993300;stroke-width:1;stroke-linecap:butt;stroke-linejoin:miter;stroke-miterlimit:1.45000005;stroke-dasharray:none;stroke-opacity:1"
           d="m 430.5,-190.5 v -52 l -8,-8 H 392" /></g><path
         id="path500"
         style="fill:#993300;fill-opacity:1;fill-rule:nonzero;stroke:none"
         d="m 384,250.5 c 0,-2.211 1.789,-4 4,-4 2.211,0 4,1.789 4,4 0,2.211 -1.789,4 -4,4 -2.211,0 -4,-1.789 -4,-4" /><g
         transform="scale(1,-1)"
         id="g502"><path
           id="path504"
           style="fill:none;stroke:#000000;stroke-width:1;stroke-linecap:butt;stroke-linejoin:miter;stroke-miterlimit:1.45000005;stroke-dasharray:none;stroke-opacity:1"
           d="M 374.25,-34.871 V -85.594" /></g><path
         id="path506"
         style="fill:#000000;fill-opacity:1;fill-rule:nonzero;stroke:none"
         d="m 374.25,89.594 6,-8 -6,3 -6,-3 z" /><g
         transform="scale(1,-1)"
         id="g508"><path
           id="path510"
           style="fill:none;stroke:#000000;stroke-width:1;stroke-linecap:butt;stroke-linejoin:miter;stroke-miterlimit:1.45000005;stroke-dasharray:none;stroke-opacity:1"
           d="M 359.25,-38.656 V -60.75 l -7.57,-7.57 h -213 l -8.18,-8.18 v -84.957" /></g><path
         id="path512"
         style="fill:#000000;fill-opacity:1;fill-rule:nonzero;stroke:none"
         d="m 130.5,165.457 6,-8 -6,3 -6,-3 z" /><g
         transform="scale(1,-1)"
         id="g514"><path
           id="path516"
           style="fill:none;stroke:#000000;stroke-width:1;stroke-linecap:butt;stroke-linejoin:miter;stroke-miterlimit:1.45000005;stroke-dasharray:none;stroke-opacity:1"
           d="M 520.5,-36.742 V -84.691" /></g><path
         id="path518"
         style="fill:#000000;fill-opacity:1;fill-rule:nonzero;stroke:none"
         d="m 520.5,88.691 6,-8 -6,3 -6,-3 z" /><g
         transform="scale(1,-1)"
         id="g520"><path
           id="path522"
           style="fill:none;stroke:#000000;stroke-width:1;stroke-linecap:butt;stroke-linejoin:miter;stroke-miterlimit:1.45000005;stroke-dasharray:none;stroke-opacity:1"
           d="M 448,-35.496 V -85.254" /></g><path
         id="path524"
         style="fill:#000000;fill-opacity:1;fill-rule:nonzero;stroke:none"
         d="m 448,89.254 6,-8 -6,3 -6,-3 z" /><g
         transform="scale(1,-1)"
         id="g526"><path
           id="path528"
           style="fill:none;stroke:#c0c0c0;stroke-width:1;stroke-linecap:butt;stroke-linejoin:miter;stroke-miterlimit:1.45000005;stroke-dasharray:none;stroke-opacity:1"
           d="M 262.949,-328 H 61 l -8,8 v 50.5" /></g><path
         id="path530"
         style="fill:#c0c0c0;fill-opacity:1;fill-rule:nonzero;stroke:none"
         d="m 53,265.5 -6,8 6,-3 6,3 z" /><g
         transform="scale(1,-1)"
         id="g532"><path
           id="path534"
           style="fill:none;stroke:#c0c0c0;stroke-width:1;stroke-linecap:butt;stroke-linejoin:miter;stroke-miterlimit:1.45000005;stroke-dasharray:none;stroke-opacity:1"
           d="M 278,-320.469 V -225 l -8.59,8.59 h -208 L 53,-208 v 87.238" /></g><path
         id="path536"
         style="fill:#c0c0c0;fill-opacity:1;fill-rule:nonzero;stroke:none"
         d="m 53,116.762 -6,8 6,-3 6,3 z" /><g
         transform="scale(1,-1)"
         id="g538"><path
           id="path540"
           style="fill:none;stroke:#c0c0c0;stroke-width:1;stroke-linecap:butt;stroke-linejoin:miter;stroke-miterlimit:1.45000005;stroke-dasharray:none;stroke-opacity:1"
           d="M 273,-322.969 V -264 l -8.5,8.5 H 242" /></g><path
         id="path542"
         style="fill:#c0c0c0;fill-opacity:1;fill-rule:nonzero;stroke:none"
         d="m 238,255.5 8,6 -3,-6 3,-6 z" /><g
         transform="scale(1,-1)"
         id="g544"><path
           id="path546"
           style="fill:none;stroke:#c0c0c0;stroke-width:1;stroke-linecap:butt;stroke-linejoin:miter;stroke-miterlimit:1.45000005;stroke-dasharray:none;stroke-opacity:1"
           d="M 308.004,-325.5 H 325.5 l 5,5 v 152 l -8,8 h -19 l -8,8 v 31.184" /></g><path
         id="path548"
         style="fill:#c0c0c0;fill-opacity:1;fill-rule:nonzero;stroke:none"
         d="m 295.5,117.316 -6,8 6,-3 6,3 z" /><g
         transform="scale(1,-1)"
         id="g550"><path
           id="path552"
           style="fill:none;stroke:#c0c0c0;stroke-width:1;stroke-linecap:butt;stroke-linejoin:miter;stroke-miterlimit:1.45000005;stroke-dasharray:none;stroke-opacity:1"
           d="M 283,-317.969 V -219 l -8.047,8.047 h -53 L 213,-202 v 80" /></g><path
         id="path554"
         style="fill:#c0c0c0;fill-opacity:1;fill-rule:nonzero;stroke:none"
         d="m 213,118 -6,8 6,-3 6,3 z" /><g
         transform="scale(1,-1)"
         id="g556"><path
           id="path558"
           style="fill:none;stroke:#c0c0c0;stroke-width:1;stroke-linecap:butt;stroke-linejoin:miter;stroke-miterlimit:1.45000005;stroke-dasharray:none;stroke-opacity:1"
           d="M 303,-323.004 V -264 l 8.5,8.5 h 22.473" /></g><path
         id="path560"
         style="fill:#c0c0c0;fill-opacity:1;fill-rule:nonzero;stroke:none"
         d="m 337.973,255.5 -8,-6 3,6 -3,6 z" /><g
         transform="scale(1,-1)"
         id="g562"><path
           id="path564"
           style="fill:none;stroke:#c0c0c0;stroke-width:1;stroke-linecap:butt;stroke-linejoin:miter;stroke-miterlimit:1.45000005;stroke-dasharray:none;stroke-opacity:1"
           d="M 288,-315.5 V -214 l 8.5,8.5 h 53 l 8.5,8.5 v 75.281" /></g><path
         id="path566"
         style="fill:#c0c0c0;fill-opacity:1;fill-rule:nonzero;stroke:none"
         d="m 358,117.719 -6,8 6,-3 6,3 z" /><g
         transform="scale(1,-1)"
         id="g568"><path
           id="path570"
           style="fill:none;stroke:#c0c0c0;stroke-width:1;stroke-linecap:butt;stroke-linejoin:miter;stroke-miterlimit:1.45000005;stroke-dasharray:none;stroke-opacity:1"
           d="M 308.016,-330.5 H 497.5 l 8,8 v 53" /></g><path
         id="path572"
         style="fill:#c0c0c0;fill-opacity:1;fill-rule:nonzero;stroke:none"
         d="m 505.5,265.5 -6,8 6,-3 6,3 z" /><g
         transform="scale(1,-1)"
         id="g574"><path
           id="path576"
           style="fill:none;stroke:#c0c0c0;stroke-width:1;stroke-linecap:butt;stroke-linejoin:miter;stroke-miterlimit:1.45000005;stroke-dasharray:none;stroke-opacity:1"
           d="M 293,-317.992 V -241 l 8.227,8.227 h 206 l 8.273,8.273 V -122" /></g><path
         id="path578"
         style="fill:#c0c0c0;fill-opacity:1;fill-rule:nonzero;stroke:none"
         d="m 515.5,118 -6,8 6,-3 6,3 z" /><g
         transform="scale(1,-1)"
         id="g580"><path
           id="path582"
           style="fill:none;stroke:#c0c0c0;stroke-width:1;stroke-linecap:butt;stroke-linejoin:miter;stroke-miterlimit:1.45000005;stroke-dasharray:none;stroke-opacity:1"
           d="M 298,-320.488 V -231 l 3.684,3.684 h 90 l 8.296,8.296 v 108 L 403,-108 h 7.406" /></g><path
         id="path584"
         style="fill:#c0c0c0;fill-opacity:1;fill-rule:nonzero;stroke:none"
         d="m 414.406,108 -8,-6 3,6 -3,6 z" /></g></g></svg>