<?xml version="1.0" encoding="UTF-8" standalone="no"?>
<svg
   xmlns:dc="http://purl.org/dc/elements/1.1/"
   xmlns:cc="http://creativecommons.org/ns#"
   xmlns:rdf="http://www.w3.org/1999/02/22-rdf-syntax-ns#"
   xmlns:svg="http://www.w3.org/2000/svg"
   xmlns="http://www.w3.org/2000/svg"
   xmlns:sodipodi="http://sodipodi.sourceforge.net/DTD/sodipodi-0.dtd"
   xmlns:inkscape="http://www.inkscape.org/namespaces/inkscape"
   viewBox="0 0 548 341.33334"
   height="341.33334"
   width="548"
   xml:space="preserve"
   id="svg2"
   version="1.1"
   sodipodi:docname="thsocs_attr_clean.svg"
   inkscape:version="0.92.5 (2060ec1f9f, 2020-04-08)"
   inkscape:export-filename="/home/esther/Downloads/CD4Tcell_COVID19/figures/thsocs_attr_clean.png"
   inkscape:export-xdpi="300.06799"
   inkscape:export-ydpi="300.06799"><sodipodi:namedview
     pagecolor="#ffffff"
     bordercolor="#666666"
     borderopacity="1"
     objecttolerance="10"
     gridtolerance="10"
     guidetolerance="10"
     inkscape:pageopacity="0"
     inkscape:pageshadow="2"
     inkscape:window-width="1879"
     inkscape:window-height="1056"
     id="namedview233"
     showgrid="false"
     inkscape:zoom="2.0729927"
     inkscape:cx="226.52801"
     inkscape:cy="114.54503"
     inkscape:window-x="0"
     inkscape:window-y="0"
     inkscape:window-maximized="1"
     inkscape:current-layer="g12" /><metadata
     id="metadata8"><rdf:RDF><cc:Work
         rdf:about=""><dc:format>image/svg+xml</dc:format><dc:type
           rdf:resource="http://purl.org/dc/dcmitype/StillImage" /><dc:title /></cc:Work></rdf:RDF></metadata><defs
     id="defs6">
</defs><g
     transform="matrix(1.3333333,0,0,-1.3333333,0,341.33333)"
     id="g10"><g
       transform="scale(0.1)"
       id="g12"><g
         transform="scale(10)"
         id="g14"><text
   id="text18"
   style="font-variant:normal;font-weight:normal;font-size:12px;font-family:'DejaVu Sans';-inkscape-font-specification:DejaVuSans;writing-mode:lr-tb;fill:#000000;fill-opacity:1;fill-rule:nonzero;stroke:none"
   transform="matrix(1,0,0,-1,99.8133,246.525)"><tspan
     id="tspan16"
     y="0"
     x="0 8.4361248 12.600281 16.596468 21.324562 27.984468 34.644623 38.532608 45.87661 50.520718 57.180531 60.504345 67.848343 71.820389 75.144203 79.140388 86.472221 93.132294 96.456108 105.12 113.78383 120.45567 127.45152 130.77533 138.10733 141.41942 148.17528 154.81114 158.14714 161.48314 164.81906 172.13918 178.77504 182.98685 192.1548 199.49879 204.14291">Attractors of the CD4+ T cell network</tspan></text>

<text
   id="text22"
   style="font-variant:normal;font-weight:normal;font-size:10px;font-family:'DejaVu Sans';-inkscape-font-specification:DejaVuSans;writing-mode:lr-tb;fill:#000000;fill-opacity:1;fill-rule:nonzero;stroke:none"
   transform="matrix(0,1,1,0,8.01563,120.318)"><tspan
     id="tspan20"
     y="0"
     x="0 7.2499218 12.799805 18.349806 23.869726">Nodes</tspan></text>

</g><path
         id="path24"
         style="fill:#fb8072;fill-opacity:1;fill-rule:nonzero;stroke:none"
         d="M 500.121,315.512 H 688.559 V 503.871 H 500.121 Z" /><path
         id="path26"
         style="fill:#fb8072;fill-opacity:1;fill-rule:nonzero;stroke:none"
         d="M 500.121,503.871 H 688.559 V 692.23 H 500.121 Z" /><path
         id="path28"
         style="fill:#fb8072;fill-opacity:1;fill-rule:nonzero;stroke:none"
         d="M 500.121,692.23 H 688.559 V 880.589 H 500.121 Z" /><path
         id="path30"
         style="fill:#fb8072;fill-opacity:1;fill-rule:nonzero;stroke:none"
         d="m 500.121,880.59 h 188.438 v 188.359 H 500.121 Z" /><path
         id="path32"
         style="fill:#fb8072;fill-opacity:1;fill-rule:nonzero;stroke:none"
         d="m 500.121,1068.94 h 188.438 v 188.359 H 500.121 Z" /><path
         id="path34"
         style="fill:#fb8072;fill-opacity:1;fill-rule:nonzero;stroke:none"
         d="m 500.121,1257.3 h 188.438 v 188.398 H 500.121 Z" /><path
         id="path36"
         style="fill:#fb8072;fill-opacity:1;fill-rule:nonzero;stroke:none"
         d="m 500.121,1445.7 h 188.438 v 188.359 H 500.121 Z" /><path
         id="path38"
         style="fill:#fb8072;fill-opacity:1;fill-rule:nonzero;stroke:none"
         d="m 500.121,1634.06 h 188.438 v 188.363 H 500.121 Z" /><path
         id="path40"
         style="fill:#fb8072;fill-opacity:1;fill-rule:nonzero;stroke:none"
         d="m 500.121,1822.42 h 188.438 v 188.359 H 500.121 Z" /><path
         id="path42"
         style="fill:#fb8072;fill-opacity:1;fill-rule:nonzero;stroke:none"
         d="m 500.121,2010.78 h 188.438 v 188.359 H 500.121 Z" /><path
         id="path44"
         style="fill:#fb8072;fill-opacity:1;fill-rule:nonzero;stroke:none"
         d="m 500.121,2199.14 h 188.438 v 188.359 H 500.121 Z" /><path
         id="path46"
         style="fill:#b3de69;fill-opacity:1;fill-rule:nonzero;stroke:none"
         d="m 1280.39,315.512 h 188.359 V 503.871 H 1280.39 Z" /><path
         id="path48"
         style="fill:#fb8072;fill-opacity:1;fill-rule:nonzero;stroke:none"
         d="m 1280.39,503.871 h 188.359 V 692.23 H 1280.39 Z" /><path
         id="path50"
         style="fill:#fb8072;fill-opacity:1;fill-rule:nonzero;stroke:none"
         d="m 1280.39,692.23 h 188.359 V 880.589 H 1280.39 Z" /><path
         id="path52"
         style="fill:#ffdd55;fill-opacity:1;fill-rule:nonzero;stroke:none"
         d="m 1280.39,880.59 h 188.359 v 188.359 H 1280.39 Z" /><path
         id="path54"
         style="fill:#ffdd55;fill-opacity:1;fill-rule:nonzero;stroke:none"
         d="m 1280.39,1068.94 h 188.359 v 188.359 H 1280.39 Z" /><path
         id="path56"
         style="fill:#ffdd55;fill-opacity:1;fill-rule:nonzero;stroke:none"
         d="m 1280.39,1257.3 h 188.359 v 188.398 H 1280.39 Z" /><path
         id="path58"
         style="fill:#fb8072;fill-opacity:1;fill-rule:nonzero;stroke:none"
         d="m 1280.39,1445.7 h 188.359 v 188.359 H 1280.39 Z" /><path
         id="path60"
         style="fill:#ffdd55;fill-opacity:1;fill-rule:nonzero;stroke:none"
         d="m 1280.39,1634.06 h 188.359 v 188.363 H 1280.39 Z" /><path
         id="path62"
         style="fill:#fb8072;fill-opacity:1;fill-rule:nonzero;stroke:none"
         d="m 1280.39,1822.42 h 188.359 v 188.359 H 1280.39 Z" /><path
         id="path64"
         style="fill:#fb8072;fill-opacity:1;fill-rule:nonzero;stroke:none"
         d="m 1280.39,2010.78 h 188.359 v 188.359 H 1280.39 Z" /><path
         id="path66"
         style="fill:#fb8072;fill-opacity:1;fill-rule:nonzero;stroke:none"
         d="m 1280.39,2199.14 h 188.359 v 188.359 H 1280.39 Z" /><path
         id="path68"
         style="fill:#b3de69;fill-opacity:1;fill-rule:nonzero;stroke:none"
         d="M 715.16,315.512 H 903.601 V 503.871 H 715.16 Z" /><path
         id="path70"
         style="fill:#b3de69;fill-opacity:1;fill-rule:nonzero;stroke:none"
         d="M 715.16,503.871 H 903.601 V 692.23 H 715.16 Z" /><path
         id="path72"
         style="fill:#fb8072;fill-opacity:1;fill-rule:nonzero;stroke:none"
         d="M 715.16,692.23 H 903.601 V 880.589 H 715.16 Z" /><path
         id="path74"
         style="fill:#fb8072;fill-opacity:1;fill-rule:nonzero;stroke:none"
         d="m 715.16,880.59 h 188.441 v 188.359 H 715.16 Z" /><path
         id="path76"
         style="fill:#b3de69;fill-opacity:1;fill-rule:nonzero;stroke:none"
         d="m 715.16,1068.94 h 188.441 v 188.359 H 715.16 Z" /><path
         id="path78"
         style="fill:#fb8072;fill-opacity:1;fill-rule:nonzero;stroke:none"
         d="m 715.16,1257.3 h 188.441 v 188.398 H 715.16 Z" /><path
         id="path80"
         style="fill:#fb8072;fill-opacity:1;fill-rule:nonzero;stroke:none"
         d="m 715.16,1445.7 h 188.441 v 188.359 H 715.16 Z" /><path
         id="path82"
         style="fill:#fb8072;fill-opacity:1;fill-rule:nonzero;stroke:none"
         d="m 715.16,1634.06 h 188.441 v 188.363 H 715.16 Z" /><path
         id="path84"
         style="fill:#fb8072;fill-opacity:1;fill-rule:nonzero;stroke:none"
         d="m 715.16,1822.42 h 188.441 v 188.359 H 715.16 Z" /><path
         id="path86"
         style="fill:#fb8072;fill-opacity:1;fill-rule:nonzero;stroke:none"
         d="m 715.16,2010.78 h 188.441 v 188.359 H 715.16 Z" /><path
         id="path88"
         style="fill:#fb8072;fill-opacity:1;fill-rule:nonzero;stroke:none"
         d="m 715.16,2199.14 h 188.441 v 188.359 H 715.16 Z" /><path
         id="path90"
         style="fill:#b3de69;fill-opacity:1;fill-rule:nonzero;stroke:none"
         d="m 903.59,315.512 h 188.359 V 503.871 H 903.59 Z" /><path
         id="path92"
         style="fill:#fb8072;fill-opacity:1;fill-rule:nonzero;stroke:none"
         d="m 903.59,503.871 h 188.359 V 692.23 H 903.59 Z" /><path
         id="path94"
         style="fill:#fb8072;fill-opacity:1;fill-rule:nonzero;stroke:none"
         d="m 903.59,692.23 h 188.359 V 880.589 H 903.59 Z" /><path
         id="path96"
         style="fill:#b3de69;fill-opacity:1;fill-rule:nonzero;stroke:none"
         d="m 903.59,880.59 h 188.359 v 188.359 H 903.59 Z" /><path
         id="path98"
         style="fill:#b3de69;fill-opacity:1;fill-rule:nonzero;stroke:none"
         d="m 903.59,1068.94 h 188.359 v 188.359 H 903.59 Z" /><path
         id="path100"
         style="fill:#fb8072;fill-opacity:1;fill-rule:nonzero;stroke:none"
         d="m 903.59,1257.3 h 188.359 v 188.398 H 903.59 Z" /><path
         id="path102"
         style="fill:#fb8072;fill-opacity:1;fill-rule:nonzero;stroke:none"
         d="m 903.59,1445.7 h 188.359 v 188.359 H 903.59 Z" /><path
         id="path104"
         style="fill:#fb8072;fill-opacity:1;fill-rule:nonzero;stroke:none"
         d="m 903.59,1634.06 h 188.359 v 188.363 H 903.59 Z" /><path
         id="path106"
         style="fill:#fb8072;fill-opacity:1;fill-rule:nonzero;stroke:none"
         d="m 903.59,1822.42 h 188.359 v 188.359 H 903.59 Z" /><path
         id="path108"
         style="fill:#fb8072;fill-opacity:1;fill-rule:nonzero;stroke:none"
         d="m 903.59,2010.78 h 188.359 v 188.359 H 903.59 Z" /><path
         id="path110"
         style="fill:#fb8072;fill-opacity:1;fill-rule:nonzero;stroke:none"
         d="m 903.59,2199.14 h 188.359 v 188.359 H 903.59 Z" /><path
         id="path112"
         style="fill:#b3de69;fill-opacity:1;fill-rule:nonzero;stroke:none"
         d="m 1091.95,315.512 h 188.441 V 503.871 H 1091.95 Z" /><path
         id="path114"
         style="fill:#fb8072;fill-opacity:1;fill-rule:nonzero;stroke:none"
         d="m 1091.95,503.871 h 188.441 V 692.23 H 1091.95 Z" /><path
         id="path116"
         style="fill:#b3de69;fill-opacity:1;fill-rule:nonzero;stroke:none"
         d="m 1091.95,692.23 h 188.441 V 880.589 H 1091.95 Z" /><path
         id="path118"
         style="fill:#fb8072;fill-opacity:1;fill-rule:nonzero;stroke:none"
         d="m 1091.95,880.59 h 188.441 v 188.359 H 1091.95 Z" /><path
         id="path120"
         style="fill:#b3de69;fill-opacity:1;fill-rule:nonzero;stroke:none"
         d="m 1091.95,1068.94 h 188.441 v 188.359 H 1091.95 Z" /><path
         id="path122"
         style="fill:#b3de69;fill-opacity:1;fill-rule:nonzero;stroke:none"
         d="m 1091.95,1257.3 h 188.441 v 188.398 H 1091.95 Z" /><path
         id="path124"
         style="fill:#fb8072;fill-opacity:1;fill-rule:nonzero;stroke:none"
         d="m 1091.95,1445.7 h 188.441 v 188.359 H 1091.95 Z" /><path
         id="path126"
         style="fill:#fb8072;fill-opacity:1;fill-rule:nonzero;stroke:none"
         d="m 1091.95,1634.06 h 188.441 v 188.363 H 1091.95 Z" /><path
         id="path128"
         style="fill:#fb8072;fill-opacity:1;fill-rule:nonzero;stroke:none"
         d="m 1091.95,1822.42 h 188.441 v 188.359 H 1091.95 Z" /><path
         id="path130"
         style="fill:#fb8072;fill-opacity:1;fill-rule:nonzero;stroke:none"
         d="m 1091.95,2010.78 h 188.441 v 188.359 H 1091.95 Z" /><path
         id="path132"
         style="fill:#fb8072;fill-opacity:1;fill-rule:nonzero;stroke:none"
         d="m 1091.95,2199.14 h 188.441 v 188.359 H 1091.95 Z" /><path
         id="path134"
         style="fill:#b3de69;fill-opacity:1;fill-rule:nonzero;stroke:none"
         d="m 1495.39,315.512 h 188.438 V 503.871 H 1495.39 Z" /><path
         id="path136"
         style="fill:#b3de69;fill-opacity:1;fill-rule:nonzero;stroke:none"
         d="m 1495.39,503.871 h 188.438 V 692.23 H 1495.39 Z" /><path
         id="path138"
         style="fill:#b3de69;fill-opacity:1;fill-rule:nonzero;stroke:none"
         d="m 1495.39,692.23 h 188.438 V 880.589 H 1495.39 Z" /><path
         id="path140"
         style="fill:#fb8072;fill-opacity:1;fill-rule:nonzero;stroke:none"
         d="m 1495.39,880.59 h 188.438 v 188.359 H 1495.39 Z" /><path
         id="path142"
         style="fill:#ffdd55;fill-opacity:1;fill-rule:nonzero;stroke:none"
         d="m 1495.39,1068.94 h 188.438 v 188.359 H 1495.39 Z" /><path
         id="path144"
         style="fill:#fb8072;fill-opacity:1;fill-rule:nonzero;stroke:none"
         d="m 1495.39,1257.3 h 188.438 v 188.398 H 1495.39 Z" /><path
         id="path146"
         style="fill:#fb8072;fill-opacity:1;fill-rule:nonzero;stroke:none"
         d="m 1495.39,1445.7 h 188.438 v 188.359 H 1495.39 Z" /><path
         id="path148"
         style="fill:#fb8072;fill-opacity:1;fill-rule:nonzero;stroke:none"
         d="m 1495.39,1634.06 h 188.438 v 188.363 H 1495.39 Z" /><path
         id="path150"
         style="fill:#fb8072;fill-opacity:1;fill-rule:nonzero;stroke:none"
         d="m 1495.39,1822.42 h 188.438 v 188.359 H 1495.39 Z" /><path
         id="path152"
         style="fill:#fb8072;fill-opacity:1;fill-rule:nonzero;stroke:none"
         d="m 1495.39,2010.78 h 188.438 v 188.359 H 1495.39 Z" /><path
         id="path154"
         style="fill:#fb8072;fill-opacity:1;fill-rule:nonzero;stroke:none"
         d="m 1495.39,2199.14 h 188.438 v 188.359 H 1495.39 Z" /><path
         id="path156"
         style="fill:#b3de69;fill-opacity:1;fill-rule:nonzero;stroke:none"
         d="m 1925.39,315.512 h 188.359 V 503.871 H 1925.39 Z" /><path
         id="path158"
         style="fill:#fb8072;fill-opacity:1;fill-rule:nonzero;stroke:none"
         d="m 1925.39,503.871 h 188.359 V 692.23 H 1925.39 Z" /><path
         id="path160"
         style="fill:#fb8072;fill-opacity:1;fill-rule:nonzero;stroke:none"
         d="m 1925.39,692.23 h 188.359 V 880.589 H 1925.39 Z" /><path
         id="path162"
         style="fill:#fb8072;fill-opacity:1;fill-rule:nonzero;stroke:none"
         d="m 1925.39,880.59 h 188.359 v 188.359 H 1925.39 Z" /><path
         id="path164"
         style="fill:#fb8072;fill-opacity:1;fill-rule:nonzero;stroke:none"
         d="m 1925.39,1068.94 h 188.359 v 188.359 H 1925.39 Z" /><path
         id="path166"
         style="fill:#fb8072;fill-opacity:1;fill-rule:nonzero;stroke:none"
         d="m 1925.39,1257.3 h 188.359 v 188.398 H 1925.39 Z" /><path
         id="path168"
         style="fill:#b3de69;fill-opacity:1;fill-rule:nonzero;stroke:none"
         d="m 1925.39,1445.7 h 188.359 v 188.359 H 1925.39 Z" /><path
         id="path170"
         style="fill:#b3de69;fill-opacity:1;fill-rule:nonzero;stroke:none"
         d="m 1925.39,1634.06 h 188.359 v 188.363 H 1925.39 Z" /><path
         id="path172"
         style="fill:#fb8072;fill-opacity:1;fill-rule:nonzero;stroke:none"
         d="m 1925.39,1822.42 h 188.359 v 188.359 H 1925.39 Z" /><path
         id="path174"
         style="fill:#b3de69;fill-opacity:1;fill-rule:nonzero;stroke:none"
         d="m 1925.39,2010.78 h 188.359 v 188.359 H 1925.39 Z" /><path
         id="path176"
         style="fill:#fb8072;fill-opacity:1;fill-rule:nonzero;stroke:none"
         d="m 1925.39,2199.14 h 188.359 v 188.359 H 1925.39 Z" /><path
         id="path178"
         style="fill:#b3de69;fill-opacity:1;fill-rule:nonzero;stroke:none"
         d="m 3512.46,315.512 h 188.438 V 503.871 H 3512.46 Z" /><path
         id="path180"
         style="fill:#b3de69;fill-opacity:1;fill-rule:nonzero;stroke:none"
         d="m 3512.46,503.871 h 188.438 V 692.23 H 3512.46 Z" /><path
         id="path182"
         style="fill:#ffdd55;fill-opacity:1;fill-rule:nonzero;stroke:none"
         d="m 3512.46,692.23 h 188.438 V 880.589 H 3512.46 Z" /><path
         id="path184"
         style="fill:#fb8072;fill-opacity:1;fill-rule:nonzero;stroke:none"
         d="m 3512.46,880.59 h 188.438 v 188.359 H 3512.46 Z" /><path
         id="path186"
         style="fill:#ffdd55;fill-opacity:1;fill-rule:nonzero;stroke:none"
         d="m 3512.46,1068.94 h 188.438 v 188.359 H 3512.46 Z" /><path
         id="path188"
         style="fill:#fb8072;fill-opacity:1;fill-rule:nonzero;stroke:none"
         d="m 3512.46,1257.3 h 188.438 v 188.398 H 3512.46 Z" /><path
         id="path190"
         style="fill:#fb8072;fill-opacity:1;fill-rule:nonzero;stroke:none"
         d="m 3512.46,1445.7 h 188.438 v 188.359 H 3512.46 Z" /><path
         id="path192"
         style="fill:#fb8072;fill-opacity:1;fill-rule:nonzero;stroke:none"
         d="m 3512.46,1634.06 h 188.438 v 188.363 H 3512.46 Z" /><path
         id="path194"
         style="fill:#fb8072;fill-opacity:1;fill-rule:nonzero;stroke:none"
         d="m 3512.46,1822.42 h 188.438 v 188.359 H 3512.46 Z" /><path
         id="path196"
         style="fill:#fb8072;fill-opacity:1;fill-rule:nonzero;stroke:none"
         d="m 3512.46,2010.78 h 188.438 v 188.359 H 3512.46 Z" /><path
         id="path198"
         style="fill:#b3de69;fill-opacity:1;fill-rule:nonzero;stroke:none"
         d="m 3512.46,2199.14 h 188.438 v 188.359 H 3512.46 Z" /><path
         id="path200"
         style="fill:#b3de69;fill-opacity:1;fill-rule:nonzero;stroke:none"
         d="m 3135.66,315.512 h 188.359 V 503.871 H 3135.66 Z" /><path
         id="path202"
         style="fill:#b3de69;fill-opacity:1;fill-rule:nonzero;stroke:none"
         d="m 3135.66,503.871 h 188.359 V 692.23 H 3135.66 Z" /><path
         id="path204"
         style="fill:#ffdd55;fill-opacity:1;fill-rule:nonzero;stroke:none"
         d="m 3135.66,692.23 h 188.359 V 880.589 H 3135.66 Z" /><path
         id="path206"
         style="fill:#fb8072;fill-opacity:1;fill-rule:nonzero;stroke:none"
         d="m 3135.66,880.59 h 188.359 v 188.359 H 3135.66 Z" /><path
         id="path208"
         style="fill:#fb8072;fill-opacity:1;fill-rule:nonzero;stroke:none"
         d="m 3135.66,1068.94 h 188.359 v 188.359 H 3135.66 Z" /><path
         id="path210"
         style="fill:#fb8072;fill-opacity:1;fill-rule:nonzero;stroke:none"
         d="m 3135.66,1257.3 h 188.359 v 188.398 H 3135.66 Z" /><path
         id="path212"
         style="fill:#fb8072;fill-opacity:1;fill-rule:nonzero;stroke:none"
         d="m 3135.66,1445.7 h 188.359 v 188.359 H 3135.66 Z" /><path
         id="path214"
         style="fill:#fb8072;fill-opacity:1;fill-rule:nonzero;stroke:none"
         d="m 3135.66,1634.06 h 188.359 v 188.363 H 3135.66 Z" /><path
         id="path216"
         style="fill:#fb8072;fill-opacity:1;fill-rule:nonzero;stroke:none"
         d="m 3135.66,1822.42 h 188.359 v 188.359 H 3135.66 Z" /><path
         id="path218"
         style="fill:#b3de69;fill-opacity:1;fill-rule:nonzero;stroke:none"
         d="m 3135.66,2010.78 h 188.359 v 188.359 H 3135.66 Z" /><path
         id="path220"
         style="fill:#ffdd55;fill-opacity:1;fill-rule:nonzero;stroke:none"
         d="m 3135.66,2199.14 h 188.359 v 188.359 H 3135.66 Z" /><path
         id="path222"
         style="fill:#b3de69;fill-opacity:1;fill-rule:nonzero;stroke:none"
         d="m 3324.02,315.512 h 188.441 V 503.871 H 3324.02 Z" /><path
         id="path224"
         style="fill:#b3de69;fill-opacity:1;fill-rule:nonzero;stroke:none"
         d="m 3324.02,503.871 h 188.441 V 692.23 H 3324.02 Z" /><path
         id="path226"
         style="fill:#ffdd55;fill-opacity:1;fill-rule:nonzero;stroke:none"
         d="m 3324.02,692.23 h 188.441 V 880.589 H 3324.02 Z" /><path
         id="path228"
         style="fill:#fb8072;fill-opacity:1;fill-rule:nonzero;stroke:none"
         d="m 3324.02,880.59 h 188.441 v 188.359 H 3324.02 Z" /><path
         id="path230"
         style="fill:#b3de69;fill-opacity:1;fill-rule:nonzero;stroke:none"
         d="m 3324.02,1068.94 h 188.441 v 188.359 H 3324.02 Z" /><path
         id="path232"
         style="fill:#fb8072;fill-opacity:1;fill-rule:nonzero;stroke:none"
         d="m 3324.02,1257.3 h 188.441 v 188.398 H 3324.02 Z" /><path
         id="path234"
         style="fill:#fb8072;fill-opacity:1;fill-rule:nonzero;stroke:none"
         d="m 3324.02,1445.7 h 188.441 v 188.359 H 3324.02 Z" /><path
         id="path236"
         style="fill:#fb8072;fill-opacity:1;fill-rule:nonzero;stroke:none"
         d="m 3324.02,1634.06 h 188.441 v 188.363 H 3324.02 Z" /><path
         id="path238"
         style="fill:#b3de69;fill-opacity:1;fill-rule:nonzero;stroke:none"
         d="m 3324.02,1822.42 h 188.441 v 188.359 H 3324.02 Z" /><path
         id="path240"
         style="fill:#b3de69;fill-opacity:1;fill-rule:nonzero;stroke:none"
         d="m 3324.02,2010.78 h 188.441 v 188.359 H 3324.02 Z" /><path
         id="path242"
         style="fill:#ffdd55;fill-opacity:1;fill-rule:nonzero;stroke:none"
         d="m 3324.02,2199.14 h 188.441 v 188.359 H 3324.02 Z" /><path
         id="path244"
         style="fill:#b3de69;fill-opacity:1;fill-rule:nonzero;stroke:none"
         d="m 1710.43,315.512 h 188.359 V 503.871 H 1710.43 Z" /><path
         id="path246"
         style="fill:#fb8072;fill-opacity:1;fill-rule:nonzero;stroke:none"
         d="m 1710.43,503.871 h 188.359 V 692.23 H 1710.43 Z" /><path
         id="path248"
         style="fill:#fb8072;fill-opacity:1;fill-rule:nonzero;stroke:none"
         d="m 1710.43,692.23 h 188.359 V 880.589 H 1710.43 Z" /><path
         id="path250"
         style="fill:#b3de69;fill-opacity:1;fill-rule:nonzero;stroke:none"
         d="m 1710.43,880.59 h 188.359 v 188.359 H 1710.43 Z" /><path
         id="path252"
         style="fill:#ffdd55;fill-opacity:1;fill-rule:nonzero;stroke:none"
         d="m 1710.43,1068.94 h 188.359 v 188.359 H 1710.43 Z" /><path
         id="path254"
         style="fill:#b3de69;fill-opacity:1;fill-rule:nonzero;stroke:none"
         d="m 1710.43,1257.3 h 188.359 v 188.398 H 1710.43 Z" /><path
         id="path256"
         style="fill:#fb8072;fill-opacity:1;fill-rule:nonzero;stroke:none"
         d="m 1710.43,1445.7 h 188.359 v 188.359 H 1710.43 Z" /><path
         id="path258"
         style="fill:#fb8072;fill-opacity:1;fill-rule:nonzero;stroke:none"
         d="m 1710.43,1634.06 h 188.359 v 188.363 H 1710.43 Z" /><path
         id="path260"
         style="fill:#fb8072;fill-opacity:1;fill-rule:nonzero;stroke:none"
         d="m 1710.43,1822.42 h 188.359 v 188.359 H 1710.43 Z" /><path
         id="path262"
         style="fill:#fb8072;fill-opacity:1;fill-rule:nonzero;stroke:none"
         d="m 1710.43,2010.78 h 188.359 v 188.359 H 1710.43 Z" /><path
         id="path264"
         style="fill:#fb8072;fill-opacity:1;fill-rule:nonzero;stroke:none"
         d="m 1710.43,2199.14 h 188.359 v 188.359 H 1710.43 Z" /><path
         id="path266"
         style="fill:#b3de69;fill-opacity:1;fill-rule:nonzero;stroke:none"
         d="m 3727.54,315.512 h 188.359 V 503.871 H 3727.54 Z" /><path
         id="path268"
         style="fill:#fb8072;fill-opacity:1;fill-rule:nonzero;stroke:none"
         d="m 3727.54,503.871 h 188.359 V 692.23 H 3727.54 Z" /><path
         id="path270"
         style="fill:#fb8072;fill-opacity:1;fill-rule:nonzero;stroke:none"
         d="m 3727.54,692.23 h 188.359 V 880.589 H 3727.54 Z" /><path
         id="path272"
         style="fill:#b3de69;fill-opacity:1;fill-rule:nonzero;stroke:none"
         d="m 3727.54,880.59 h 188.359 v 188.359 H 3727.54 Z" /><path
         id="path274"
         style="fill:#ffdd55;fill-opacity:1;fill-rule:nonzero;stroke:none"
         d="m 3727.54,1068.94 h 188.359 v 188.359 H 3727.54 Z" /><path
         id="path276"
         style="fill:#fb8072;fill-opacity:1;fill-rule:nonzero;stroke:none"
         d="m 3727.54,1257.3 h 188.359 v 188.398 H 3727.54 Z" /><path
         id="path278"
         style="fill:#fb8072;fill-opacity:1;fill-rule:nonzero;stroke:none"
         d="m 3727.54,1445.7 h 188.359 v 188.359 H 3727.54 Z" /><path
         id="path280"
         style="fill:#fb8072;fill-opacity:1;fill-rule:nonzero;stroke:none"
         d="m 3727.54,1634.06 h 188.359 v 188.363 H 3727.54 Z" /><path
         id="path282"
         style="fill:#fb8072;fill-opacity:1;fill-rule:nonzero;stroke:none"
         d="m 3727.54,1822.42 h 188.359 v 188.359 H 3727.54 Z" /><path
         id="path284"
         style="fill:#fb8072;fill-opacity:1;fill-rule:nonzero;stroke:none"
         d="m 3727.54,2010.78 h 188.359 v 188.359 H 3727.54 Z" /><path
         id="path286"
         style="fill:#b3de69;fill-opacity:1;fill-rule:nonzero;stroke:none"
         d="m 3727.54,2199.14 h 188.359 v 188.359 H 3727.54 Z" /><path
         id="path288"
         style="fill:#b3de69;fill-opacity:1;fill-rule:nonzero;stroke:none"
         d="m 3915.9,315.512 h 188.441 V 503.871 H 3915.9 Z" /><path
         id="path290"
         style="fill:#fb8072;fill-opacity:1;fill-rule:nonzero;stroke:none"
         d="m 3915.9,503.871 h 188.441 V 692.23 H 3915.9 Z" /><path
         id="path292"
         style="fill:#fb8072;fill-opacity:1;fill-rule:nonzero;stroke:none"
         d="m 3915.9,692.23 h 188.441 V 880.589 H 3915.9 Z" /><path
         id="path294"
         style="fill:#b3de69;fill-opacity:1;fill-rule:nonzero;stroke:none"
         d="m 3915.9,880.59 h 188.441 v 188.359 H 3915.9 Z" /><path
         id="path296"
         style="fill:#ffdd55;fill-opacity:1;fill-rule:nonzero;stroke:none"
         d="m 3915.9,1068.94 h 188.441 v 188.359 H 3915.9 Z" /><path
         id="path298"
         style="fill:#b3de69;fill-opacity:1;fill-rule:nonzero;stroke:none"
         d="m 3915.9,1257.3 h 188.441 v 188.398 H 3915.9 Z" /><path
         id="path300"
         style="fill:#fb8072;fill-opacity:1;fill-rule:nonzero;stroke:none"
         d="m 3915.9,1445.7 h 188.441 v 188.359 H 3915.9 Z" /><path
         id="path302"
         style="fill:#fb8072;fill-opacity:1;fill-rule:nonzero;stroke:none"
         d="m 3915.9,1634.06 h 188.441 v 188.363 H 3915.9 Z" /><path
         id="path304"
         style="fill:#fb8072;fill-opacity:1;fill-rule:nonzero;stroke:none"
         d="m 3915.9,1822.42 h 188.441 v 188.359 H 3915.9 Z" /><path
         id="path306"
         style="fill:#fb8072;fill-opacity:1;fill-rule:nonzero;stroke:none"
         d="m 3915.9,2010.78 h 188.441 v 188.359 H 3915.9 Z" /><path
         id="path308"
         style="fill:#b3de69;fill-opacity:1;fill-rule:nonzero;stroke:none"
         d="m 3915.9,2199.14 h 188.441 v 188.359 H 3915.9 Z" /><path
         id="path310"
         style="fill:#b3de69;fill-opacity:1;fill-rule:nonzero;stroke:none"
         d="m 2543.75,315.512 h 188.398 V 503.871 H 2543.75 Z" /><path
         id="path312"
         style="fill:#fb8072;fill-opacity:1;fill-rule:nonzero;stroke:none"
         d="m 2543.75,503.871 h 188.398 V 692.23 H 2543.75 Z" /><path
         id="path314"
         style="fill:#fb8072;fill-opacity:1;fill-rule:nonzero;stroke:none"
         d="m 2543.75,692.23 h 188.398 V 880.589 H 2543.75 Z" /><path
         id="path316"
         style="fill:#fb8072;fill-opacity:1;fill-rule:nonzero;stroke:none"
         d="m 2543.75,880.59 h 188.398 v 188.359 H 2543.75 Z" /><path
         id="path318"
         style="fill:#ffdd55;fill-opacity:1;fill-rule:nonzero;stroke:none"
         d="m 2543.75,1068.94 h 188.398 v 188.359 H 2543.75 Z" /><path
         id="path320"
         style="fill:#fb8072;fill-opacity:1;fill-rule:nonzero;stroke:none"
         d="m 2543.75,1257.3 h 188.398 v 188.398 H 2543.75 Z" /><path
         id="path322"
         style="fill:#fb8072;fill-opacity:1;fill-rule:nonzero;stroke:none"
         d="m 2543.75,1445.7 h 188.398 v 188.359 H 2543.75 Z" /><path
         id="path324"
         style="fill:#fb8072;fill-opacity:1;fill-rule:nonzero;stroke:none"
         d="m 2543.75,1634.06 h 188.398 v 188.363 H 2543.75 Z" /><path
         id="path326"
         style="fill:#fb8072;fill-opacity:1;fill-rule:nonzero;stroke:none"
         d="m 2543.75,1822.42 h 188.398 v 188.359 H 2543.75 Z" /><path
         id="path328"
         style="fill:#fb8072;fill-opacity:1;fill-rule:nonzero;stroke:none"
         d="m 2543.75,2010.78 h 188.398 v 188.359 H 2543.75 Z" /><path
         id="path330"
         style="fill:#b3de69;fill-opacity:1;fill-rule:nonzero;stroke:none"
         d="m 2543.75,2199.14 h 188.398 v 188.359 H 2543.75 Z" /><path
         id="path332"
         style="fill:#b3de69;fill-opacity:1;fill-rule:nonzero;stroke:none"
         d="m 2732.15,315.512 h 188.363 V 503.871 H 2732.15 Z" /><path
         id="path334"
         style="fill:#fb8072;fill-opacity:1;fill-rule:nonzero;stroke:none"
         d="m 2732.15,503.871 h 188.363 V 692.23 H 2732.15 Z" /><path
         id="path336"
         style="fill:#b3de69;fill-opacity:1;fill-rule:nonzero;stroke:none"
         d="m 2732.15,692.23 h 188.363 V 880.589 H 2732.15 Z" /><path
         id="path338"
         style="fill:#fb8072;fill-opacity:1;fill-rule:nonzero;stroke:none"
         d="m 2732.15,880.59 h 188.363 v 188.359 H 2732.15 Z" /><path
         id="path340"
         style="fill:#ffdd55;fill-opacity:1;fill-rule:nonzero;stroke:none"
         d="m 2732.15,1068.94 h 188.363 v 188.359 H 2732.15 Z" /><path
         id="path342"
         style="fill:#b3de69;fill-opacity:1;fill-rule:nonzero;stroke:none"
         d="m 2732.15,1257.3 h 188.363 v 188.398 H 2732.15 Z" /><path
         id="path344"
         style="fill:#fb8072;fill-opacity:1;fill-rule:nonzero;stroke:none"
         d="m 2732.15,1445.7 h 188.363 v 188.359 H 2732.15 Z" /><path
         id="path346"
         style="fill:#fb8072;fill-opacity:1;fill-rule:nonzero;stroke:none"
         d="m 2732.15,1634.06 h 188.363 v 188.363 H 2732.15 Z" /><path
         id="path348"
         style="fill:#fb8072;fill-opacity:1;fill-rule:nonzero;stroke:none"
         d="m 2732.15,1822.42 h 188.363 v 188.359 H 2732.15 Z" /><path
         id="path350"
         style="fill:#fb8072;fill-opacity:1;fill-rule:nonzero;stroke:none"
         d="m 2732.15,2010.78 h 188.363 v 188.359 H 2732.15 Z" /><path
         id="path352"
         style="fill:#b3de69;fill-opacity:1;fill-rule:nonzero;stroke:none"
         d="m 2732.15,2199.14 h 188.363 v 188.359 H 2732.15 Z" /><path
         id="path354"
         style="fill:#b3de69;fill-opacity:1;fill-rule:nonzero;stroke:none"
         d="m 2920.7,315.512 h 188.359 V 503.871 H 2920.7 Z" /><path
         id="path356"
         style="fill:#fb8072;fill-opacity:1;fill-rule:nonzero;stroke:none"
         d="m 2920.7,503.871 h 188.359 V 692.23 H 2920.7 Z" /><path
         id="path358"
         style="fill:#fb8072;fill-opacity:1;fill-rule:nonzero;stroke:none"
         d="m 2920.7,692.23 h 188.359 V 880.589 H 2920.7 Z" /><path
         id="path360"
         style="fill:#fb8072;fill-opacity:1;fill-rule:nonzero;stroke:none"
         d="m 2920.7,880.59 h 188.359 v 188.359 H 2920.7 Z" /><path
         id="path362"
         style="fill:#fb8072;fill-opacity:1;fill-rule:nonzero;stroke:none"
         d="m 2920.7,1068.94 h 188.359 v 188.359 H 2920.7 Z" /><path
         id="path364"
         style="fill:#ffdd55;fill-opacity:1;fill-rule:nonzero;stroke:none"
         d="m 2920.7,1257.3 h 188.359 v 188.398 H 2920.7 Z" /><path
         id="path366"
         style="fill:#fb8072;fill-opacity:1;fill-rule:nonzero;stroke:none"
         d="m 2920.7,1445.7 h 188.359 v 188.359 H 2920.7 Z" /><path
         id="path368"
         style="fill:#fb8072;fill-opacity:1;fill-rule:nonzero;stroke:none"
         d="m 2920.7,1634.06 h 188.359 v 188.363 H 2920.7 Z" /><path
         id="path370"
         style="fill:#fb8072;fill-opacity:1;fill-rule:nonzero;stroke:none"
         d="m 2920.7,1822.42 h 188.359 v 188.359 H 2920.7 Z" /><path
         id="path372"
         style="fill:#b3de69;fill-opacity:1;fill-rule:nonzero;stroke:none"
         d="m 2920.7,2010.78 h 188.359 v 188.359 H 2920.7 Z" /><path
         id="path374"
         style="fill:#ffdd55;fill-opacity:1;fill-rule:nonzero;stroke:none"
         d="m 2920.7,2199.14 h 188.359 v 188.359 H 2920.7 Z" /><path
         id="path376"
         style="fill:#b3de69;fill-opacity:1;fill-rule:nonzero;stroke:none"
         d="m 2140.35,315.512 h 188.438 V 503.871 H 2140.35 Z" /><path
         id="path378"
         style="fill:#fb8072;fill-opacity:1;fill-rule:nonzero;stroke:none"
         d="m 2140.35,503.871 h 188.438 V 692.23 H 2140.35 Z" /><path
         id="path380"
         style="fill:#fb8072;fill-opacity:1;fill-rule:nonzero;stroke:none"
         d="m 2140.35,692.23 h 188.438 V 880.589 H 2140.35 Z" /><path
         id="path382"
         style="fill:#fb8072;fill-opacity:1;fill-rule:nonzero;stroke:none"
         d="m 2140.35,880.59 h 188.438 v 188.359 H 2140.35 Z" /><path
         id="path384"
         style="fill:#b3de69;fill-opacity:1;fill-rule:nonzero;stroke:none"
         d="m 2140.35,1068.94 h 188.438 v 188.359 H 2140.35 Z" /><path
         id="path386"
         style="fill:#fb8072;fill-opacity:1;fill-rule:nonzero;stroke:none"
         d="m 2140.35,1257.3 h 188.438 v 188.398 H 2140.35 Z" /><path
         id="path388"
         style="fill:#fb8072;fill-opacity:1;fill-rule:nonzero;stroke:none"
         d="m 2140.35,1445.7 h 188.438 v 188.359 H 2140.35 Z" /><path
         id="path390"
         style="fill:#fb8072;fill-opacity:1;fill-rule:nonzero;stroke:none"
         d="m 2140.35,1634.06 h 188.438 v 188.363 H 2140.35 Z" /><path
         id="path392"
         style="fill:#b3de69;fill-opacity:1;fill-rule:nonzero;stroke:none"
         d="m 2140.35,1822.42 h 188.438 v 188.359 H 2140.35 Z" /><path
         id="path394"
         style="fill:#b3de69;fill-opacity:1;fill-rule:nonzero;stroke:none"
         d="m 2140.35,2010.78 h 188.438 v 188.359 H 2140.35 Z" /><path
         id="path396"
         style="fill:#ffdd55;fill-opacity:1;fill-rule:nonzero;stroke:none"
         d="m 2140.35,2199.14 h 188.438 v 188.359 H 2140.35 Z" /><path
         id="path398"
         style="fill:#b3de69;fill-opacity:1;fill-rule:nonzero;stroke:none"
         d="m 2328.79,315.512 h 188.359 V 503.871 H 2328.79 Z" /><path
         id="path400"
         style="fill:#fb8072;fill-opacity:1;fill-rule:nonzero;stroke:none"
         d="m 2328.79,503.871 h 188.359 V 692.23 H 2328.79 Z" /><path
         id="path402"
         style="fill:#ffdd55;fill-opacity:1;fill-rule:nonzero;stroke:none"
         d="m 2328.79,692.23 h 188.359 V 880.589 H 2328.79 Z" /><path
         id="path404"
         style="fill:#fb8072;fill-opacity:1;fill-rule:nonzero;stroke:none"
         d="m 2328.79,880.59 h 188.359 v 188.359 H 2328.79 Z" /><path
         id="path406"
         style="fill:#b3de69;fill-opacity:1;fill-rule:nonzero;stroke:none"
         d="m 2328.79,1068.94 h 188.359 v 188.359 H 2328.79 Z" /><path
         id="path408"
         style="fill:#b3de69;fill-opacity:1;fill-rule:nonzero;stroke:none"
         d="m 2328.79,1257.3 h 188.359 v 188.398 H 2328.79 Z" /><path
         id="path410"
         style="fill:#fb8072;fill-opacity:1;fill-rule:nonzero;stroke:none"
         d="m 2328.79,1445.7 h 188.359 v 188.359 H 2328.79 Z" /><path
         id="path412"
         style="fill:#fb8072;fill-opacity:1;fill-rule:nonzero;stroke:none"
         d="m 2328.79,1634.06 h 188.359 v 188.363 H 2328.79 Z" /><path
         id="path414"
         style="fill:#b3de69;fill-opacity:1;fill-rule:nonzero;stroke:none"
         d="m 2328.79,1822.42 h 188.359 v 188.359 H 2328.79 Z" /><path
         id="path416"
         style="fill:#b3de69;fill-opacity:1;fill-rule:nonzero;stroke:none"
         d="m 2328.79,2010.78 h 188.359 v 188.359 H 2328.79 Z" /><path
         id="path418"
         style="fill:#ffdd55;fill-opacity:1;fill-rule:nonzero;stroke:none"
         d="m 2328.79,2199.14 h 188.359 v 188.359 H 2328.79 Z" /><text
         transform="scale(1,-1)"
         style="font-variant:normal;font-weight:normal;font-size:100px;font-family:'DejaVu Sans';-inkscape-font-specification:DejaVuSans;writing-mode:lr-tb;fill:#000000;fill-opacity:1;fill-rule:nonzero;stroke:none;stroke-width:10"
         id="text424"
         x="527.96899"
         y="-193.105"><tspan
           x="527.96899 599.56976 655.07092 677.1698 725.36975 1548.0695 1608.8706 1664.3721 3333.0422 3393.5425 3449.0442 3504.6421 1755.359 1815.8594 1871.3608 3830.479 3890.9792 3946.481 4002.0791 1958.749 2019.2494 2074.751 2130.3491 2268.9512 2320.7522 2353.0515 2408.6528 2818.4539 2870.2551"
           y="-193.105"
           id="tspan422"
           style="stroke-width:10">NaiveTh1Th1RTh2Th2RTh17TregTr</tspan></text>
<text
         transform="scale(1,-1)"
         style="font-variant:normal;font-weight:normal;font-size:100px;font-family:'DejaVu Sans';-inkscape-font-specification:DejaVuSans;text-align:center;writing-mode:lr-tb;text-anchor:middle;fill:#000000;fill-opacity:1;fill-rule:nonzero;stroke:none;stroke-width:9.99999905"
         id="text424-3"
         x="1093.7523"
         y="-187.34328"><tspan
           id="tspan422-6"
           style="text-align:center;text-anchor:middle;stroke-width:9.99999905">Th0/Tex</tspan><tspan
           id="tspan1058"
           style="text-align:center;text-anchor:middle;stroke-width:9.99999905" /></text>
<path
         id="path426"
         style="fill:#fb8072;fill-opacity:1;fill-rule:nonzero;stroke:none"
         d="m 2302.77,6.35938 h 103.672 v 86.4492 H 2302.77 Z" /><path
         id="path428"
         style="fill:none;stroke:#000000;stroke-width:9;stroke-linecap:round;stroke-linejoin:round;stroke-miterlimit:10;stroke-dasharray:none;stroke-opacity:1"
         d="m 2302.77,6.35938 h 103.672 v 86.4492 H 2302.77 Z" /><path
         id="path430"
         style="fill:#b3de69;fill-opacity:1;fill-rule:nonzero;stroke:none"
         d="m 1619.26,6.35938 h 103.668 v 86.4492 H 1619.26 Z" /><path
         id="path432"
         style="fill:none;stroke:#000000;stroke-width:9;stroke-linecap:round;stroke-linejoin:round;stroke-miterlimit:10;stroke-dasharray:none;stroke-opacity:1"
         d="m 1619.26,6.35938 h 103.668 v 86.4492 H 1619.26 Z" /><path
         id="path434"
         style="fill:#ffdd55;fill-opacity:1;fill-rule:nonzero;stroke:none"
         d="m 3019.38,6.35938 h 103.672 v 86.4492 H 3019.38 Z" /><path
         id="path436"
         style="fill:none;stroke:#000000;stroke-width:9;stroke-linecap:round;stroke-linejoin:round;stroke-miterlimit:10;stroke-dasharray:none;stroke-opacity:1"
         d="m 3019.38,6.35938 h 103.672 v 86.4492 H 3019.38 Z" /><g
         transform="scale(10)"
         id="g438"><text
   id="text464"
   style="font-variant:normal;font-weight:normal;font-size:10px;font-family:'DejaVu Sans';-inkscape-font-specification:DejaVuSans;writing-mode:lr-tb;fill:#000000;fill-opacity:1;fill-rule:nonzero;stroke:none"
   transform="matrix(1,0,0,-1,315.333,1.42852)"><tspan
     id="tspan440"
     y="0"
     x="0 5.550117 10.620039 13.349999 15.559882 20.399801 25.839764 28.569723 30.779606 36.329491 41.879646 44.649685 50.229645 53.559566 56.329605 58.53949 64.089645 69.639801 71.849686 77.429764 79.639648 82.369606 84.579491 90.129372 -140.01199 -134.46188 -129.39197 -126.662 -124.45212 -119.6122 -114.17223 -111.44228 -109.23239 -103.68251 -71.952713 -69.712753 -64.162598 -58.612438 -56.402554 -50.852554 -48.622749 -45.912708 -43.672749 -38.122868">activation or inhibitionactivationinhibition</tspan><tspan
     id="tspan442"
     y="-35.950401"
     x="-289.492 -283.84195 -276.62213">TCR</tspan><tspan
     id="tspan444"
     y="-54.731998"
     x="-294.98184 -289.00171 -282.33176 -275.77191">TBET</tspan><tspan
     id="tspan446"
     y="-73.623001"
     x="-293.01193 -290.242 -284.13184 -276.91199">IFNG</tspan><tspan
     id="tspan448"
     y="-92.459297"
     x="-300.16193 -292.45197 -286.71216 -281.57227 -274.9024">GATA3</tspan><tspan
     id="tspan450"
     y="-111.2406"
     x="-283.27173 -280.5018 -274.93179">IL2</tspan><tspan
     id="tspan452"
     y="-130.0769"
     x="-283.36197 -280.59204 -275.02203">IL4</tspan><tspan
     id="tspan454"
     y="-148.96831"
     x="-305.04166 -297.95163 -290.17145 -283.11151 -275.78162">RORGT</tspan><tspan
     id="tspan456"
     y="-167.7496"
     x="-287.19205 -284.42212 -278.85214 -273.30228">IL21</tspan><tspan
     id="tspan458"
     y="-186.64101"
     x="-301.44205 -295.55222 -288.22205 -281.55194 -274.8819">FOXP3</tspan><tspan
     id="tspan460"
     y="-205.47729"
     x="-295.60184 -289.95178 -282.20178 -276.0719">TGFB</tspan><tspan
     id="tspan462"
     y="-224.3734"
     x="-288.79205 -286.02213 -280.45212 -274.90228">IL10</tspan></text>

</g></g></g></svg>